<svg id="visual" viewBox="0 0 900 600" width="900" height="600" xmlns="http://www.w3.org/2000/svg" xmlns:xlink="http://www.w3.org/1999/xlink" version="1.1"><rect x="0" y="0" width="900" height="600" fill="#001220"></rect><defs><linearGradient id="grad1_0" x1="33.3%" y1="0%" x2="100%" y2="100%"><stop offset="20%" stop-color="#fbae3c" stop-opacity="1"></stop><stop offset="80%" stop-color="#fbae3c" stop-opacity="1"></stop></linearGradient></defs><defs><linearGradient id="grad1_1" x1="33.3%" y1="0%" x2="100%" y2="100%"><stop offset="20%" stop-color="#fbae3c" stop-opacity="1"></stop><stop offset="80%" stop-color="#e1685e" stop-opacity="1"></stop></linearGradient></defs><defs><linearGradient id="grad1_2" x1="33.3%" y1="0%" x2="100%" y2="100%"><stop offset="20%" stop-color="#96446e" stop-opacity="1"></stop><stop offset="80%" stop-color="#e1685e" stop-opacity="1"></stop></linearGradient></defs><defs><linearGradient id="grad1_3" x1="33.3%" y1="0%" x2="100%" y2="100%"><stop offset="20%" stop-color="#96446e" stop-opacity="1"></stop><stop offset="80%" stop-color="#3d3056" stop-opacity="1"></stop></linearGradient></defs><defs><linearGradient id="grad1_4" x1="33.3%" y1="0%" x2="100%" y2="100%"><stop offset="20%" stop-color="#001220" stop-opacity="1"></stop><stop offset="80%" stop-color="#3d3056" stop-opacity="1"></stop></linearGradient></defs><defs><linearGradient id="grad2_0" x1="0%" y1="0%" x2="66.7%" y2="100%"><stop offset="20%" stop-color="#fbae3c" stop-opacity="1"></stop><stop offset="80%" stop-color="#fbae3c" stop-opacity="1"></stop></linearGradient></defs><defs><linearGradient id="grad2_1" x1="0%" y1="0%" x2="66.7%" y2="100%"><stop offset="20%" stop-color="#e1685e" stop-opacity="1"></stop><stop offset="80%" stop-color="#fbae3c" stop-opacity="1"></stop></linearGradient></defs><defs><linearGradient id="grad2_2" x1="0%" y1="0%" x2="66.7%" y2="100%"><stop offset="20%" stop-color="#e1685e" stop-opacity="1"></stop><stop offset="80%" stop-color="#96446e" stop-opacity="1"></stop></linearGradient></defs><defs><linearGradient id="grad2_3" x1="0%" y1="0%" x2="66.7%" y2="100%"><stop offset="20%" stop-color="#3d3056" stop-opacity="1"></stop><stop offset="80%" stop-color="#96446e" stop-opacity="1"></stop></linearGradient></defs><defs><linearGradient id="grad2_4" x1="0%" y1="0%" x2="66.7%" y2="100%"><stop offset="20%" stop-color="#3d3056" stop-opacity="1"></stop><stop offset="80%" stop-color="#001220" stop-opacity="1"></stop></linearGradient></defs><g transform="translate(900, 0)"><path d="M0 432.7C-28.3 399.9 -56.5 367.2 -78.3 343.2C-100.1 319.2 -115.4 304 -148.8 309C-182.2 314.1 -233.8 339.3 -261.2 327.6C-288.7 315.8 -292.2 267 -284.6 227C-277 186.9 -258.3 155.5 -286.5 138C-314.7 120.5 -389.7 117 -421.8 96.3C-454 75.6 -443.3 37.8 -432.7 0L0 0Z" fill="#18223c"></path><path d="M0 346.1C-22.6 319.9 -45.2 293.7 -62.7 274.5C-80.1 255.4 -92.3 243.2 -119.1 247.2C-145.8 251.3 -187 271.5 -209 262.1C-231 252.7 -233.7 213.6 -227.7 181.6C-221.6 149.5 -206.7 124.4 -229.2 110.4C-251.7 96.4 -311.7 93.6 -337.5 77C-363.2 60.5 -354.7 30.2 -346.1 0L0 0Z" fill="#683a67"></path><path d="M0 259.6C-17 239.9 -33.9 220.3 -47 205.9C-60.1 191.5 -69.2 182.4 -89.3 185.4C-109.3 188.4 -140.3 203.6 -156.7 196.6C-173.2 189.5 -175.3 160.2 -170.8 136.2C-166.2 112.1 -155 93.3 -171.9 82.8C-188.8 72.3 -233.8 70.2 -253.1 57.8C-272.4 45.4 -266 22.7 -259.6 0L0 0Z" fill="#c0526a"></path><path d="M0 173.1C-11.3 160 -22.6 146.9 -31.3 137.3C-40 127.7 -46.2 121.6 -59.5 123.6C-72.9 125.6 -93.5 135.7 -104.5 131C-115.5 126.3 -116.9 106.8 -113.8 90.8C-110.8 74.7 -103.3 62.2 -114.6 55.2C-125.9 48.2 -155.9 46.8 -168.7 38.5C-181.6 30.2 -177.3 15.1 -173.1 0L0 0Z" fill="#f6884d"></path><path d="M0 86.5C-5.7 80 -11.3 73.4 -15.7 68.6C-20 63.8 -23.1 60.8 -29.8 61.8C-36.4 62.8 -46.8 67.9 -52.2 65.5C-57.7 63.2 -58.4 53.4 -56.9 45.4C-55.4 37.4 -51.7 31.1 -57.3 27.6C-62.9 24.1 -77.9 23.4 -84.4 19.3C-90.8 15.1 -88.7 7.6 -86.5 0L0 0Z" fill="#fbae3c"></path></g><g transform="translate(0, 600)"><path d="M0 -432.7C36.6 -435.4 73.1 -438.1 92.1 -403.6C111.1 -369.1 112.6 -297.5 131.5 -273C150.3 -248.5 186.6 -271.2 220.1 -276C253.6 -280.8 284.2 -267.6 315.1 -251.3C346 -234.9 377.2 -215.4 389.8 -187.7C402.5 -160 396.6 -124.1 400.7 -91.5C404.8 -58.8 418.7 -29.4 432.7 0L0 0Z" fill="#18223c"></path><path d="M0 -346.1C29.2 -348.3 58.5 -350.5 73.7 -322.9C88.9 -295.3 90.1 -238 105.2 -218.4C120.3 -198.8 149.3 -217 176.1 -220.8C202.8 -224.6 227.3 -214.1 252.1 -201C276.8 -187.9 301.7 -172.3 311.9 -150.2C322 -128 317.3 -99.3 320.6 -73.2C323.8 -47 335 -23.5 346.1 0L0 0Z" fill="#683a67"></path><path d="M0 -259.6C21.9 -261.2 43.9 -262.9 55.3 -242.2C66.7 -221.5 67.6 -178.5 78.9 -163.8C90.2 -149.1 112 -162.7 132.1 -165.6C152.1 -168.5 170.5 -160.6 189 -150.8C207.6 -141 226.3 -129.3 233.9 -112.6C241.5 -96 238 -74.5 240.4 -54.9C242.9 -35.3 251.2 -17.6 259.6 0L0 0Z" fill="#c0526a"></path><path d="M0 -173.1C14.6 -174.2 29.2 -175.2 36.8 -161.4C44.5 -147.7 45 -119 52.6 -109.2C60.1 -99.4 74.7 -108.5 88 -110.4C101.4 -112.3 113.7 -107 126 -100.5C138.4 -94 150.9 -86.2 155.9 -75.1C161 -64 158.7 -49.6 160.3 -36.6C161.9 -23.5 167.5 -11.8 173.1 0L0 0Z" fill="#f6884d"></path><path d="M0 -86.5C7.3 -87.1 14.6 -87.6 18.4 -80.7C22.2 -73.8 22.5 -59.5 26.3 -54.6C30.1 -49.7 37.3 -54.2 44 -55.2C50.7 -56.2 56.8 -53.5 63 -50.3C69.2 -47 75.4 -43.1 78 -37.5C80.5 -32 79.3 -24.8 80.1 -18.3C81 -11.8 83.7 -5.9 86.5 0L0 0Z" fill="#fbae3c"></path></g></svg>