<svg id="visual" viewBox="0 0 900 600" width="900" height="600" xmlns="http://www.w3.org/2000/svg" xmlns:xlink="http://www.w3.org/1999/xlink" version="1.1"><g stroke-width="1" stroke-linejoin="bevel"><path d="M415 281L383 295L435 355Z" fill="#112e42" stroke="#112e42"></path><path d="M435 355L485 332L415 281Z" fill="#19435d" stroke="#19435d"></path><path d="M383 295L374 394L435 355Z" fill="#277297" stroke="#277297"></path><path d="M435 355L498 382L485 332Z" fill="#205a7a" stroke="#205a7a"></path><path d="M485 332L467 251L415 281Z" fill="#00101c" stroke="#00101c"></path><path d="M392 204L325 274L383 295Z" fill="#1d4e6b" stroke="#1d4e6b"></path><path d="M383 295L350 385L374 394Z" fill="#246688" stroke="#246688"></path><path d="M392 204L383 295L415 281Z" fill="#00101c" stroke="#00101c"></path><path d="M383 295L315 354L350 385Z" fill="#19435d" stroke="#19435d"></path><path d="M325 274L315 354L383 295Z" fill="#246688" stroke="#246688"></path><path d="M395 445L498 382L435 355Z" fill="#1d4e6b" stroke="#1d4e6b"></path><path d="M545 285L488 217L467 251Z" fill="#246688" stroke="#246688"></path><path d="M498 382L507 367L485 332Z" fill="#246688" stroke="#246688"></path><path d="M467 251L424 217L415 281Z" fill="#19435d" stroke="#19435d"></path><path d="M424 217L392 204L415 281Z" fill="#1d4e6b" stroke="#1d4e6b"></path><path d="M310 439L395 445L374 394Z" fill="#277297" stroke="#277297"></path><path d="M374 394L395 445L435 355Z" fill="#297ea6" stroke="#297ea6"></path><path d="M310 439L374 394L350 385Z" fill="#277297" stroke="#277297"></path><path d="M545 285L467 251L485 332Z" fill="#205a7a" stroke="#205a7a"></path><path d="M467 251L488 217L424 217Z" fill="#15384f" stroke="#15384f"></path><path d="M424 217L398 185L392 204Z" fill="#1d4e6b" stroke="#1d4e6b"></path><path d="M392 204L303 250L325 274Z" fill="#297ea6" stroke="#297ea6"></path><path d="M325 274L245 348L315 354Z" fill="#081a28" stroke="#081a28"></path><path d="M546 365L545 285L485 332Z" fill="#0c2435" stroke="#0c2435"></path><path d="M477 146L398 185L424 217Z" fill="#297ea6" stroke="#297ea6"></path><path d="M392 204L297 209L303 250Z" fill="#00101c" stroke="#00101c"></path><path d="M544 398L546 365L507 367Z" fill="#00101c" stroke="#00101c"></path><path d="M507 367L546 365L485 332Z" fill="#0c2435" stroke="#0c2435"></path><path d="M544 398L507 367L498 382Z" fill="#081a28" stroke="#081a28"></path><path d="M389 509L412 467L395 445Z" fill="#205a7a" stroke="#205a7a"></path><path d="M395 445L412 467L498 382Z" fill="#112e42" stroke="#112e42"></path><path d="M545 285L508 203L488 217Z" fill="#246688" stroke="#246688"></path><path d="M488 217L477 146L424 217Z" fill="#112e42" stroke="#112e42"></path><path d="M529 469L544 398L498 382Z" fill="#205a7a" stroke="#205a7a"></path><path d="M254 411L310 439L315 354Z" fill="#112e42" stroke="#112e42"></path><path d="M315 354L310 439L350 385Z" fill="#15384f" stroke="#15384f"></path><path d="M379 146L297 209L392 204Z" fill="#00101c" stroke="#00101c"></path><path d="M226 314L245 348L325 274Z" fill="#081a28" stroke="#081a28"></path><path d="M226 314L325 274L303 250Z" fill="#00101c" stroke="#00101c"></path><path d="M412 467L489 478L498 382Z" fill="#246688" stroke="#246688"></path><path d="M455 110L379 146L398 185Z" fill="#205a7a" stroke="#205a7a"></path><path d="M398 185L379 146L392 204Z" fill="#112e42" stroke="#112e42"></path><path d="M245 348L254 411L315 354Z" fill="#19435d" stroke="#19435d"></path><path d="M508 203L477 146L488 217Z" fill="#205a7a" stroke="#205a7a"></path><path d="M205 249L226 314L303 250Z" fill="#1d4e6b" stroke="#1d4e6b"></path><path d="M169 363L214 448L254 411Z" fill="#00101c" stroke="#00101c"></path><path d="M489 478L529 469L498 382Z" fill="#246688" stroke="#246688"></path><path d="M310 439L389 509L395 445Z" fill="#297ea6" stroke="#297ea6"></path><path d="M412 467L456 559L489 478Z" fill="#277297" stroke="#277297"></path><path d="M489 478L568 534L529 469Z" fill="#15384f" stroke="#15384f"></path><path d="M299 535L389 509L310 439Z" fill="#246688" stroke="#246688"></path><path d="M254 411L270 451L310 439Z" fill="#00101c" stroke="#00101c"></path><path d="M455 110L365 130L379 146Z" fill="#081a28" stroke="#081a28"></path><path d="M379 146L365 130L297 209Z" fill="#19435d" stroke="#19435d"></path><path d="M545 285L576 209L508 203Z" fill="#246688" stroke="#246688"></path><path d="M508 203L562 121L477 146Z" fill="#246688" stroke="#246688"></path><path d="M636 244L576 209L545 285Z" fill="#112e42" stroke="#112e42"></path><path d="M627 325L545 285L546 365Z" fill="#081a28" stroke="#081a28"></path><path d="M529 469L595 433L544 398Z" fill="#1d4e6b" stroke="#1d4e6b"></path><path d="M544 398L624 390L546 365Z" fill="#00101c" stroke="#00101c"></path><path d="M624 390L627 325L546 365Z" fill="#15384f" stroke="#15384f"></path><path d="M532 55L455 110L477 146Z" fill="#081a28" stroke="#081a28"></path><path d="M477 146L455 110L398 185Z" fill="#00101c" stroke="#00101c"></path><path d="M323 554L400 541L389 509Z" fill="#277297" stroke="#277297"></path><path d="M389 509L400 541L412 467Z" fill="#246688" stroke="#246688"></path><path d="M568 534L625 449L595 433Z" fill="#246688" stroke="#246688"></path><path d="M297 209L205 249L303 250Z" fill="#205a7a" stroke="#205a7a"></path><path d="M226 314L188 315L245 348Z" fill="#19435d" stroke="#19435d"></path><path d="M207 209L205 249L297 209Z" fill="#205a7a" stroke="#205a7a"></path><path d="M595 433L624 390L544 398Z" fill="#246688" stroke="#246688"></path><path d="M205 249L188 315L226 314Z" fill="#205a7a" stroke="#205a7a"></path><path d="M254 411L214 448L270 451Z" fill="#277297" stroke="#277297"></path><path d="M195 176L207 209L297 209Z" fill="#297ea6" stroke="#297ea6"></path><path d="M122 283L154 328L188 315Z" fill="#0c2435" stroke="#0c2435"></path><path d="M663 236L636 244L627 325Z" fill="#15384f" stroke="#15384f"></path><path d="M627 325L636 244L545 285Z" fill="#1d4e6b" stroke="#1d4e6b"></path><path d="M576 209L562 121L508 203Z" fill="#0c2435" stroke="#0c2435"></path><path d="M169 363L254 411L245 348Z" fill="#277297" stroke="#277297"></path><path d="M270 451L299 535L310 439Z" fill="#1d4e6b" stroke="#1d4e6b"></path><path d="M636 244L627 211L576 209Z" fill="#297ea6" stroke="#297ea6"></path><path d="M400 541L456 559L412 467Z" fill="#277297" stroke="#277297"></path><path d="M230 557L299 535L270 451Z" fill="#205a7a" stroke="#205a7a"></path><path d="M400 541L388 600L456 559Z" fill="#277297" stroke="#277297"></path><path d="M663 236L630 206L627 211Z" fill="#1d4e6b" stroke="#1d4e6b"></path><path d="M627 211L630 206L576 209Z" fill="#112e42" stroke="#112e42"></path><path d="M291 89L286 110L365 130Z" fill="#277297" stroke="#277297"></path><path d="M365 130L286 110L297 209Z" fill="#081a28" stroke="#081a28"></path><path d="M568 534L595 433L529 469Z" fill="#246688" stroke="#246688"></path><path d="M595 433L625 449L624 390Z" fill="#19435d" stroke="#19435d"></path><path d="M695 335L663 236L627 325Z" fill="#246688" stroke="#246688"></path><path d="M154 328L169 363L188 315Z" fill="#0c2435" stroke="#0c2435"></path><path d="M188 315L169 363L245 348Z" fill="#205a7a" stroke="#205a7a"></path><path d="M623 135L562 121L576 209Z" fill="#081a28" stroke="#081a28"></path><path d="M299 535L323 554L389 509Z" fill="#277297" stroke="#277297"></path><path d="M146 241L188 315L205 249Z" fill="#277297" stroke="#277297"></path><path d="M532 55L460 64L455 110Z" fill="#277297" stroke="#277297"></path><path d="M455 110L455 63L365 130Z" fill="#205a7a" stroke="#205a7a"></path><path d="M460 64L455 63L455 110Z" fill="#297ea6" stroke="#297ea6"></path><path d="M286 110L195 176L297 209Z" fill="#246688" stroke="#246688"></path><path d="M147 216L146 241L205 249Z" fill="#277297" stroke="#277297"></path><path d="M347 39L291 89L365 130Z" fill="#15384f" stroke="#15384f"></path><path d="M286 110L207 93L195 176Z" fill="#297ea6" stroke="#297ea6"></path><path d="M456 559L568 534L489 478Z" fill="#246688" stroke="#246688"></path><path d="M685 352L627 325L624 390Z" fill="#081a28" stroke="#081a28"></path><path d="M636 244L663 236L627 211Z" fill="#19435d" stroke="#19435d"></path><path d="M630 206L623 135L576 209Z" fill="#0c2435" stroke="#0c2435"></path><path d="M673 425L624 390L625 449Z" fill="#112e42" stroke="#112e42"></path><path d="M673 425L676 390L624 390Z" fill="#205a7a" stroke="#205a7a"></path><path d="M676 390L685 352L624 390Z" fill="#1d4e6b" stroke="#1d4e6b"></path><path d="M154 328L147 388L169 363Z" fill="#246688" stroke="#246688"></path><path d="M169 363L147 388L214 448Z" fill="#19435d" stroke="#19435d"></path><path d="M232 600L323 554L299 535Z" fill="#246688" stroke="#246688"></path><path d="M147 216L205 249L207 209Z" fill="#0c2435" stroke="#0c2435"></path><path d="M38 363L63 410L147 388Z" fill="#297ea6" stroke="#297ea6"></path><path d="M689 461L673 425L625 449Z" fill="#205a7a" stroke="#205a7a"></path><path d="M744 388L695 335L685 352Z" fill="#00101c" stroke="#00101c"></path><path d="M364 600L388 600L400 541Z" fill="#205a7a" stroke="#205a7a"></path><path d="M517 600L571 564L568 534Z" fill="#00101c" stroke="#00101c"></path><path d="M655 107L623 135L706 154Z" fill="#277297" stroke="#277297"></path><path d="M562 121L532 55L477 146Z" fill="#277297" stroke="#277297"></path><path d="M744 296L695 335L752 322Z" fill="#205a7a" stroke="#205a7a"></path><path d="M685 352L695 335L627 325Z" fill="#15384f" stroke="#15384f"></path><path d="M331 600L364 600L323 554Z" fill="#277297" stroke="#277297"></path><path d="M323 554L364 600L400 541Z" fill="#1d4e6b" stroke="#1d4e6b"></path><path d="M331 600L323 554L232 600Z" fill="#246688" stroke="#246688"></path><path d="M195 176L147 216L207 209Z" fill="#297ea6" stroke="#297ea6"></path><path d="M157 156L147 216L195 176Z" fill="#15384f" stroke="#15384f"></path><path d="M517 600L568 534L456 559Z" fill="#112e42" stroke="#112e42"></path><path d="M568 534L650 491L625 449Z" fill="#277297" stroke="#277297"></path><path d="M455 63L347 39L365 130Z" fill="#19435d" stroke="#19435d"></path><path d="M291 89L263 71L286 110Z" fill="#112e42" stroke="#112e42"></path><path d="M417 0L347 39L455 63Z" fill="#277297" stroke="#277297"></path><path d="M230 557L270 451L214 448Z" fill="#19435d" stroke="#19435d"></path><path d="M630 71L562 71L562 121Z" fill="#112e42" stroke="#112e42"></path><path d="M511 0L417 0L455 63Z" fill="#205a7a" stroke="#205a7a"></path><path d="M676 546L650 491L568 534Z" fill="#15384f" stroke="#15384f"></path><path d="M562 71L532 55L562 121Z" fill="#297ea6" stroke="#297ea6"></path><path d="M347 39L263 71L291 89Z" fill="#246688" stroke="#246688"></path><path d="M65 239L122 283L146 241Z" fill="#1d4e6b" stroke="#1d4e6b"></path><path d="M146 241L122 283L188 315Z" fill="#205a7a" stroke="#205a7a"></path><path d="M388 600L517 600L456 559Z" fill="#205a7a" stroke="#205a7a"></path><path d="M165 489L230 557L214 448Z" fill="#19435d" stroke="#19435d"></path><path d="M129 441L165 489L214 448Z" fill="#1d4e6b" stroke="#1d4e6b"></path><path d="M129 441L214 448L147 388Z" fill="#19435d" stroke="#19435d"></path><path d="M207 93L157 156L195 176Z" fill="#15384f" stroke="#15384f"></path><path d="M147 216L65 239L146 241Z" fill="#19435d" stroke="#19435d"></path><path d="M263 71L207 93L286 110Z" fill="#1d4e6b" stroke="#1d4e6b"></path><path d="M86 468L129 441L63 410Z" fill="#205a7a" stroke="#205a7a"></path><path d="M676 546L689 461L650 491Z" fill="#19435d" stroke="#19435d"></path><path d="M650 491L689 461L625 449Z" fill="#205a7a" stroke="#205a7a"></path><path d="M673 425L744 388L676 390Z" fill="#15384f" stroke="#15384f"></path><path d="M517 600L556 600L571 564Z" fill="#19435d" stroke="#19435d"></path><path d="M571 564L676 546L568 534Z" fill="#15384f" stroke="#15384f"></path><path d="M511 0L455 63L460 64Z" fill="#297ea6" stroke="#297ea6"></path><path d="M347 39L320 0L263 71Z" fill="#277297" stroke="#277297"></path><path d="M263 71L201 23L207 93Z" fill="#297ea6" stroke="#297ea6"></path><path d="M144 137L133 163L157 156Z" fill="#1d4e6b" stroke="#1d4e6b"></path><path d="M157 156L133 163L147 216Z" fill="#112e42" stroke="#112e42"></path><path d="M706 154L623 135L630 206Z" fill="#081a28" stroke="#081a28"></path><path d="M623 135L630 71L562 121Z" fill="#15384f" stroke="#15384f"></path><path d="M514 0L511 0L532 55Z" fill="#081a28" stroke="#081a28"></path><path d="M532 55L511 0L460 64Z" fill="#297ea6" stroke="#297ea6"></path><path d="M706 154L630 206L663 236Z" fill="#297ea6" stroke="#297ea6"></path><path d="M417 0L361 0L347 39Z" fill="#15384f" stroke="#15384f"></path><path d="M207 93L144 137L157 156Z" fill="#19435d" stroke="#19435d"></path><path d="M655 107L630 71L623 135Z" fill="#0c2435" stroke="#0c2435"></path><path d="M744 388L685 352L676 390Z" fill="#1d4e6b" stroke="#1d4e6b"></path><path d="M695 335L742 269L663 236Z" fill="#246688" stroke="#246688"></path><path d="M744 296L742 269L695 335Z" fill="#0c2435" stroke="#0c2435"></path><path d="M230 557L232 600L299 535Z" fill="#00101c" stroke="#00101c"></path><path d="M167 577L232 600L230 557Z" fill="#15384f" stroke="#15384f"></path><path d="M167 577L230 557L165 489Z" fill="#277297" stroke="#277297"></path><path d="M361 0L320 0L347 39Z" fill="#00101c" stroke="#00101c"></path><path d="M207 93L153 44L144 137Z" fill="#0c2435" stroke="#0c2435"></path><path d="M514 0L532 55L562 0Z" fill="#15384f" stroke="#15384f"></path><path d="M562 0L532 55L562 71Z" fill="#1d4e6b" stroke="#1d4e6b"></path><path d="M728 87L632 0L630 71Z" fill="#205a7a" stroke="#205a7a"></path><path d="M742 269L706 154L663 236Z" fill="#00101c" stroke="#00101c"></path><path d="M739 442L744 388L673 425Z" fill="#081a28" stroke="#081a28"></path><path d="M759 368L752 322L695 335Z" fill="#0c2435" stroke="#0c2435"></path><path d="M744 296L792 253L742 269Z" fill="#1d4e6b" stroke="#1d4e6b"></path><path d="M625 600L676 546L571 564Z" fill="#00101c" stroke="#00101c"></path><path d="M689 461L739 442L673 425Z" fill="#205a7a" stroke="#205a7a"></path><path d="M743 449L739 442L689 461Z" fill="#1d4e6b" stroke="#1d4e6b"></path><path d="M744 388L759 368L695 335Z" fill="#297ea6" stroke="#297ea6"></path><path d="M813 354L759 368L830 441Z" fill="#277297" stroke="#277297"></path><path d="M784 177L710 137L706 154Z" fill="#297ea6" stroke="#297ea6"></path><path d="M706 154L710 137L655 107Z" fill="#277297" stroke="#277297"></path><path d="M556 600L625 600L571 564Z" fill="#1d4e6b" stroke="#1d4e6b"></path><path d="M85 91L96 170L144 137Z" fill="#297ea6" stroke="#297ea6"></path><path d="M144 137L96 170L133 163Z" fill="#19435d" stroke="#19435d"></path><path d="M133 163L96 170L147 216Z" fill="#112e42" stroke="#112e42"></path><path d="M63 410L129 441L147 388Z" fill="#297ea6" stroke="#297ea6"></path><path d="M751 513L743 449L689 461Z" fill="#081a28" stroke="#081a28"></path><path d="M739 442L830 441L744 388Z" fill="#19435d" stroke="#19435d"></path><path d="M630 71L562 0L562 71Z" fill="#00101c" stroke="#00101c"></path><path d="M632 0L562 0L630 71Z" fill="#112e42" stroke="#112e42"></path><path d="M105 544L167 577L165 489Z" fill="#15384f" stroke="#15384f"></path><path d="M96 170L65 239L147 216Z" fill="#297ea6" stroke="#297ea6"></path><path d="M129 441L86 468L165 489Z" fill="#246688" stroke="#246688"></path><path d="M147 388L154 328L38 363Z" fill="#297ea6" stroke="#297ea6"></path><path d="M38 363L154 328L122 283Z" fill="#15384f" stroke="#15384f"></path><path d="M320 0L247 0L263 71Z" fill="#00101c" stroke="#00101c"></path><path d="M625 600L649 600L676 546Z" fill="#277297" stroke="#277297"></path><path d="M676 546L751 513L689 461Z" fill="#1d4e6b" stroke="#1d4e6b"></path><path d="M247 0L201 23L263 71Z" fill="#19435d" stroke="#19435d"></path><path d="M131 600L163 600L167 577Z" fill="#0c2435" stroke="#0c2435"></path><path d="M167 577L163 600L232 600Z" fill="#00101c" stroke="#00101c"></path><path d="M27 273L38 363L122 283Z" fill="#19435d" stroke="#19435d"></path><path d="M54 500L74 511L86 468Z" fill="#246688" stroke="#246688"></path><path d="M201 23L153 44L207 93Z" fill="#19435d" stroke="#19435d"></path><path d="M202 0L153 44L201 23Z" fill="#277297" stroke="#277297"></path><path d="M74 511L105 544L86 468Z" fill="#081a28" stroke="#081a28"></path><path d="M86 468L105 544L165 489Z" fill="#19435d" stroke="#19435d"></path><path d="M247 0L202 0L201 23Z" fill="#081a28" stroke="#081a28"></path><path d="M752 322L792 253L744 296Z" fill="#081a28" stroke="#081a28"></path><path d="M742 269L784 177L706 154Z" fill="#19435d" stroke="#19435d"></path><path d="M813 354L792 253L752 322Z" fill="#15384f" stroke="#15384f"></path><path d="M813 354L752 322L759 368Z" fill="#00101c" stroke="#00101c"></path><path d="M726 600L751 513L676 546Z" fill="#277297" stroke="#277297"></path><path d="M830 441L759 368L744 388Z" fill="#19435d" stroke="#19435d"></path><path d="M728 87L630 71L655 107Z" fill="#15384f" stroke="#15384f"></path><path d="M728 87L655 107L710 137Z" fill="#246688" stroke="#246688"></path><path d="M54 500L86 468L0 444Z" fill="#277297" stroke="#277297"></path><path d="M0 272L27 273L0 246Z" fill="#00101c" stroke="#00101c"></path><path d="M65 239L27 273L122 283Z" fill="#246688" stroke="#246688"></path><path d="M27 273L65 239L0 246Z" fill="#0c2435" stroke="#0c2435"></path><path d="M783 103L728 87L710 137Z" fill="#205a7a" stroke="#205a7a"></path><path d="M31 600L131 600L105 544Z" fill="#112e42" stroke="#112e42"></path><path d="M105 544L131 600L167 577Z" fill="#277297" stroke="#277297"></path><path d="M792 253L784 177L742 269Z" fill="#081a28" stroke="#081a28"></path><path d="M830 441L739 442L743 449Z" fill="#205a7a" stroke="#205a7a"></path><path d="M792 253L819 235L784 177Z" fill="#1d4e6b" stroke="#1d4e6b"></path><path d="M34 92L85 91L86 0Z" fill="#15384f" stroke="#15384f"></path><path d="M153 44L85 91L144 137Z" fill="#081a28" stroke="#081a28"></path><path d="M0 444L86 468L63 410Z" fill="#277297" stroke="#277297"></path><path d="M74 511L31 600L105 544Z" fill="#081a28" stroke="#081a28"></path><path d="M0 391L63 410L38 363Z" fill="#19435d" stroke="#19435d"></path><path d="M864 290L819 235L792 253Z" fill="#0c2435" stroke="#0c2435"></path><path d="M27 273L0 367L38 363Z" fill="#246688" stroke="#246688"></path><path d="M0 246L65 239L0 159Z" fill="#277297" stroke="#277297"></path><path d="M27 273L0 272L0 367Z" fill="#0c2435" stroke="#0c2435"></path><path d="M649 600L726 600L676 546Z" fill="#15384f" stroke="#15384f"></path><path d="M820 488L830 441L743 449Z" fill="#19435d" stroke="#19435d"></path><path d="M0 367L0 391L38 363Z" fill="#1d4e6b" stroke="#1d4e6b"></path><path d="M0 159L65 239L96 170Z" fill="#0c2435" stroke="#0c2435"></path><path d="M784 177L783 103L710 137Z" fill="#297ea6" stroke="#297ea6"></path><path d="M728 87L742 0L632 0Z" fill="#277297" stroke="#277297"></path><path d="M800 82L783 103L817 99Z" fill="#00101c" stroke="#00101c"></path><path d="M0 391L0 444L63 410Z" fill="#1d4e6b" stroke="#1d4e6b"></path><path d="M54 500L31 600L74 511Z" fill="#0c2435" stroke="#0c2435"></path><path d="M820 488L743 449L751 513Z" fill="#277297" stroke="#277297"></path><path d="M813 354L864 290L792 253Z" fill="#297ea6" stroke="#297ea6"></path><path d="M810 558L820 488L751 513Z" fill="#297ea6" stroke="#297ea6"></path><path d="M98 0L85 91L153 44Z" fill="#00101c" stroke="#00101c"></path><path d="M85 91L34 92L96 170Z" fill="#0c2435" stroke="#0c2435"></path><path d="M34 92L0 159L96 170Z" fill="#00101c" stroke="#00101c"></path><path d="M202 0L98 0L153 44Z" fill="#0c2435" stroke="#0c2435"></path><path d="M900 326L864 290L813 354Z" fill="#1d4e6b" stroke="#1d4e6b"></path><path d="M817 99L783 103L784 177Z" fill="#297ea6" stroke="#297ea6"></path><path d="M900 326L813 354L900 427Z" fill="#205a7a" stroke="#205a7a"></path><path d="M845 161L784 177L819 235Z" fill="#0c2435" stroke="#0c2435"></path><path d="M783 103L800 82L728 87Z" fill="#1d4e6b" stroke="#1d4e6b"></path><path d="M0 444L0 516L54 500Z" fill="#19435d" stroke="#19435d"></path><path d="M98 0L86 0L85 91Z" fill="#297ea6" stroke="#297ea6"></path><path d="M800 82L742 0L728 87Z" fill="#297ea6" stroke="#297ea6"></path><path d="M900 185L845 161L819 235Z" fill="#00101c" stroke="#00101c"></path><path d="M845 161L817 99L784 177Z" fill="#205a7a" stroke="#205a7a"></path><path d="M800 82L788 0L742 0Z" fill="#277297" stroke="#277297"></path><path d="M726 600L810 558L751 513Z" fill="#297ea6" stroke="#297ea6"></path><path d="M900 427L813 354L830 441Z" fill="#112e42" stroke="#112e42"></path><path d="M0 94L0 97L34 92Z" fill="#19435d" stroke="#19435d"></path><path d="M34 92L0 97L0 159Z" fill="#19435d" stroke="#19435d"></path><path d="M0 0L0 94L34 92Z" fill="#246688" stroke="#246688"></path><path d="M0 516L31 600L54 500Z" fill="#277297" stroke="#277297"></path><path d="M726 600L800 600L810 558Z" fill="#205a7a" stroke="#205a7a"></path><path d="M858 529L820 488L810 558Z" fill="#277297" stroke="#277297"></path><path d="M900 427L830 441L900 458Z" fill="#297ea6" stroke="#297ea6"></path><path d="M864 290L900 253L819 235Z" fill="#1d4e6b" stroke="#1d4e6b"></path><path d="M900 326L900 307L864 290Z" fill="#081a28" stroke="#081a28"></path><path d="M822 600L858 529L810 558Z" fill="#246688" stroke="#246688"></path><path d="M900 307L900 253L864 290Z" fill="#1d4e6b" stroke="#1d4e6b"></path><path d="M855 35L800 82L817 99Z" fill="#1d4e6b" stroke="#1d4e6b"></path><path d="M855 35L817 99L900 90Z" fill="#277297" stroke="#277297"></path><path d="M855 35L788 0L800 82Z" fill="#277297" stroke="#277297"></path><path d="M800 600L822 600L810 558Z" fill="#1d4e6b" stroke="#1d4e6b"></path><path d="M900 458L830 441L820 488Z" fill="#00101c" stroke="#00101c"></path><path d="M0 516L0 600L31 600Z" fill="#246688" stroke="#246688"></path><path d="M900 253L900 185L819 235Z" fill="#19435d" stroke="#19435d"></path><path d="M858 529L900 458L820 488Z" fill="#1d4e6b" stroke="#1d4e6b"></path><path d="M900 556L900 458L858 529Z" fill="#15384f" stroke="#15384f"></path><path d="M86 0L0 0L34 92Z" fill="#246688" stroke="#246688"></path><path d="M900 90L817 99L845 161Z" fill="#081a28" stroke="#081a28"></path><path d="M900 185L900 90L845 161Z" fill="#19435d" stroke="#19435d"></path><path d="M822 600L900 556L858 529Z" fill="#19435d" stroke="#19435d"></path><path d="M900 0L850 0L855 35Z" fill="#00101c" stroke="#00101c"></path><path d="M855 35L850 0L788 0Z" fill="#0c2435" stroke="#0c2435"></path><path d="M900 90L900 65L855 35Z" fill="#277297" stroke="#277297"></path><path d="M822 600L900 600L900 556Z" fill="#19435d" stroke="#19435d"></path><path d="M900 65L900 0L855 35Z" fill="#246688" stroke="#246688"></path></g></svg>