<svg id="visual" viewBox="0 0 900 600" width="900" height="600" xmlns="http://www.w3.org/2000/svg" xmlns:xlink="http://www.w3.org/1999/xlink" version="1.1"><g stroke-width="1" stroke-linejoin="bevel"><path d="M477 298.7L519 308L502 282.3Z" fill="#420407" stroke="#000000"></path><path d="M477 298.7L509 332.6L519 308Z" fill="#662627" stroke="#000000"></path><path d="M477 298.7L458 334.9L509 332.6Z" fill="#420407" stroke="#000000"></path><path d="M456 331.1L458 334.9L477 298.7Z" fill="#501216" stroke="#000000"></path><path d="M540 227L492 230.4L502 282.3Z" fill="#662627" stroke="#000000"></path><path d="M502 282.3L450 245.1L477 298.7Z" fill="#5f2021" stroke="#000000"></path><path d="M477 298.7L411 272L456 331.1Z" fill="#490b10" stroke="#000000"></path><path d="M492 230.4L450 245.1L502 282.3Z" fill="#6e2d2d" stroke="#000000"></path><path d="M492 230.4L488 227.1L450 245.1Z" fill="#6e2d2d" stroke="#000000"></path><path d="M585 282.1L540 227L502 282.3Z" fill="#310000" stroke="#000000"></path><path d="M487 206.4L483 211L488 227.1Z" fill="#490b10" stroke="#000000"></path><path d="M602 298.9L585 282.1L519 308Z" fill="#3c0000" stroke="#000000"></path><path d="M519 308L585 282.1L502 282.3Z" fill="#3c0000" stroke="#000000"></path><path d="M450 245.1L411 272L477 298.7Z" fill="#420407" stroke="#000000"></path><path d="M456 331.1L422 380.6L458 334.9Z" fill="#3c0000" stroke="#000000"></path><path d="M487 206.4L488 227.1L492 230.4Z" fill="#58191c" stroke="#000000"></path><path d="M488 227.1L483 211L450 245.1Z" fill="#662627" stroke="#000000"></path><path d="M393 250.4L401 270.3L411 272Z" fill="#310000" stroke="#000000"></path><path d="M543 400.9L545 385.4L529 419.6Z" fill="#5f2021" stroke="#000000"></path><path d="M509 332.6L545 385.4L519 308Z" fill="#310000" stroke="#000000"></path><path d="M509 200.6L487 206.4L492 230.4Z" fill="#5f2021" stroke="#000000"></path><path d="M393 250.4L411 272L450 245.1Z" fill="#58191c" stroke="#000000"></path><path d="M393 250.4L450 245.1L434 193.3Z" fill="#310000" stroke="#000000"></path><path d="M411 272L398 334.6L456 331.1Z" fill="#3c0000" stroke="#000000"></path><path d="M540 227L509 200.6L492 230.4Z" fill="#360000" stroke="#000000"></path><path d="M608 347L602 298.9L519 308Z" fill="#501216" stroke="#000000"></path><path d="M585 282.1L588 248.3L540 227Z" fill="#490b10" stroke="#000000"></path><path d="M380 319.9L398 334.6L411 272Z" fill="#360000" stroke="#000000"></path><path d="M529 419.6L545 385.4L509 332.6Z" fill="#5f2021" stroke="#000000"></path><path d="M631 248.4L588 248.3L585 282.1Z" fill="#310000" stroke="#000000"></path><path d="M540 227L543 191.6L509 200.6Z" fill="#5f2021" stroke="#000000"></path><path d="M529 419.6L509 332.6L458 334.9Z" fill="#3c0000" stroke="#000000"></path><path d="M545 385.4L608 347L519 308Z" fill="#360000" stroke="#000000"></path><path d="M398 334.6L422 380.6L456 331.1Z" fill="#501216" stroke="#000000"></path><path d="M434 193.3L450 245.1L483 211Z" fill="#000000" stroke="#000000"></path><path d="M401 270.3L380 319.9L411 272Z" fill="#501216" stroke="#000000"></path><path d="M622 401.6L608 347L545 385.4Z" fill="#490b10" stroke="#000000"></path><path d="M608 347L616 315.7L602 298.9Z" fill="#360000" stroke="#000000"></path><path d="M631 248.4L619 229.4L588 248.3Z" fill="#662627" stroke="#000000"></path><path d="M368 312.3L380 319.9L401 270.3Z" fill="#501216" stroke="#000000"></path><path d="M398 334.6L392 371.4L422 380.6Z" fill="#310000" stroke="#000000"></path><path d="M422 380.6L529 419.6L458 334.9Z" fill="#5f2021" stroke="#000000"></path><path d="M543 400.9L622 401.6L545 385.4Z" fill="#501216" stroke="#000000"></path><path d="M588 248.3L543 191.6L540 227Z" fill="#490b10" stroke="#000000"></path><path d="M380 319.9L392 371.4L398 334.6Z" fill="#58191c" stroke="#000000"></path><path d="M473 447.3L506 443.4L529 419.6Z" fill="#6e2d2d" stroke="#000000"></path><path d="M509 200.6L498 176.7L487 206.4Z" fill="#662627" stroke="#000000"></path><path d="M487 206.4L434 193.3L483 211Z" fill="#000000" stroke="#000000"></path><path d="M543 191.6L498 176.7L509 200.6Z" fill="#501216" stroke="#000000"></path><path d="M466 158.7L434 193.3L487 206.4Z" fill="#360000" stroke="#000000"></path><path d="M372 255.3L368 312.3L401 270.3Z" fill="#3c0000" stroke="#000000"></path><path d="M380 319.9L314 348.1L392 371.4Z" fill="#000000" stroke="#000000"></path><path d="M529 419.6L550 424.3L543 400.9Z" fill="#58191c" stroke="#000000"></path><path d="M346 205.6L372 255.3L393 250.4Z" fill="#000000" stroke="#000000"></path><path d="M393 250.4L372 255.3L401 270.3Z" fill="#5f2021" stroke="#000000"></path><path d="M501 448.6L506 443.4L473 447.3Z" fill="#3c0000" stroke="#000000"></path><path d="M529 419.6L506 443.4L550 424.3Z" fill="#000000" stroke="#000000"></path><path d="M631 248.4L585 282.1L602 298.9Z" fill="#490b10" stroke="#000000"></path><path d="M588 248.3L619 229.4L543 191.6Z" fill="#501216" stroke="#000000"></path><path d="M392 371.4L411 416.6L422 380.6Z" fill="#490b10" stroke="#000000"></path><path d="M637 250.9L631 248.4L602 298.9Z" fill="#5f2021" stroke="#000000"></path><path d="M608 347L641 328.1L616 315.7Z" fill="#501216" stroke="#000000"></path><path d="M657 306.3L637 250.9L602 298.9Z" fill="#310000" stroke="#000000"></path><path d="M637 352.9L641 328.1L608 347Z" fill="#6e2d2d" stroke="#000000"></path><path d="M473 447.3L529 419.6L422 380.6Z" fill="#420407" stroke="#000000"></path><path d="M506 443.4L547 475.1L550 424.3Z" fill="#58191c" stroke="#000000"></path><path d="M411 416.6L473 447.3L422 380.6Z" fill="#420407" stroke="#000000"></path><path d="M634 390.7L637 352.9L608 347Z" fill="#501216" stroke="#000000"></path><path d="M471 130.7L466 158.7L498 176.7Z" fill="#310000" stroke="#000000"></path><path d="M498 176.7L466 158.7L487 206.4Z" fill="#000000" stroke="#000000"></path><path d="M346 205.6L345 280.1L372 255.3Z" fill="#662627" stroke="#000000"></path><path d="M657 306.3L602 298.9L616 315.7Z" fill="#420407" stroke="#000000"></path><path d="M631 248.4L642 226L619 229.4Z" fill="#6e2d2d" stroke="#000000"></path><path d="M473 447.3L481 452.4L501 448.6Z" fill="#662627" stroke="#000000"></path><path d="M486 471.7L481 452.4L473 447.3Z" fill="#360000" stroke="#000000"></path><path d="M382 187.1L393 250.4L434 193.3Z" fill="#501216" stroke="#000000"></path><path d="M372 255.3L345 280.1L368 312.3Z" fill="#420407" stroke="#000000"></path><path d="M316 387L370 411.9L392 371.4Z" fill="#58191c" stroke="#000000"></path><path d="M392 371.4L370 411.9L411 416.6Z" fill="#501216" stroke="#000000"></path><path d="M550 424.3L622 401.6L543 400.9Z" fill="#3c0000" stroke="#000000"></path><path d="M547 475.1L622 401.6L550 424.3Z" fill="#58191c" stroke="#000000"></path><path d="M675 355.6L657 306.3L641 328.1Z" fill="#420407" stroke="#000000"></path><path d="M641 328.1L657 306.3L616 315.7Z" fill="#3c0000" stroke="#000000"></path><path d="M675 355.6L641 328.1L637 352.9Z" fill="#58191c" stroke="#000000"></path><path d="M622 401.6L634 390.7L608 347Z" fill="#3c0000" stroke="#000000"></path><path d="M653 224L642 226L637 250.9Z" fill="#310000" stroke="#000000"></path><path d="M637 250.9L642 226L631 248.4Z" fill="#3c0000" stroke="#000000"></path><path d="M619 229.4L573 108.9L543 191.6Z" fill="#5f2021" stroke="#000000"></path><path d="M498 85.6L471 130.7L526 79.6Z" fill="#310000" stroke="#000000"></path><path d="M431 134.9L382 187.1L434 193.3Z" fill="#420407" stroke="#000000"></path><path d="M364 419.6L370 411.9L316 387Z" fill="#3c0000" stroke="#000000"></path><path d="M454 484.7L486 471.7L473 447.3Z" fill="#501216" stroke="#000000"></path><path d="M481 452.4L486 471.7L501 448.6Z" fill="#58191c" stroke="#000000"></path><path d="M501 448.6L547 475.1L506 443.4Z" fill="#662627" stroke="#000000"></path><path d="M454 484.7L473 447.3L411 416.6Z" fill="#662627" stroke="#000000"></path><path d="M674 234.3L653 224L637 250.9Z" fill="#360000" stroke="#000000"></path><path d="M614 92.4L573 108.9L637 95.4Z" fill="#420407" stroke="#000000"></path><path d="M573 108.9L498 176.7L543 191.6Z" fill="#58191c" stroke="#000000"></path><path d="M466 158.7L431 134.9L434 193.3Z" fill="#000000" stroke="#000000"></path><path d="M314 348.1L380 319.9L368 312.3Z" fill="#5f2021" stroke="#000000"></path><path d="M370 411.9L364 419.6L411 416.6Z" fill="#662627" stroke="#000000"></path><path d="M486 471.7L547 475.1L501 448.6Z" fill="#501216" stroke="#000000"></path><path d="M675 355.6L668 363.6L719 414.4Z" fill="#501216" stroke="#000000"></path><path d="M471 130.7L439 133.4L466 158.7Z" fill="#5f2021" stroke="#000000"></path><path d="M668 363.6L634 390.7L700 437.9Z" fill="#501216" stroke="#000000"></path><path d="M634 390.7L668 363.6L637 352.9Z" fill="#490b10" stroke="#000000"></path><path d="M657 306.3L674 234.3L637 250.9Z" fill="#501216" stroke="#000000"></path><path d="M343 172.6L346 205.6L382 187.1Z" fill="#58191c" stroke="#000000"></path><path d="M382 187.1L346 205.6L393 250.4Z" fill="#662627" stroke="#000000"></path><path d="M439 133.4L431 134.9L466 158.7Z" fill="#360000" stroke="#000000"></path><path d="M668 363.6L675 355.6L637 352.9Z" fill="#000000" stroke="#000000"></path><path d="M414 515.1L454 484.7L407 513.4Z" fill="#000000" stroke="#000000"></path><path d="M486 471.7L530 509.1L547 475.1Z" fill="#501216" stroke="#000000"></path><path d="M305 285.3L313 339.7L345 280.1Z" fill="#662627" stroke="#000000"></path><path d="M345 280.1L313 339.7L368 312.3Z" fill="#490b10" stroke="#000000"></path><path d="M733 267.1L674 234.3L657 306.3Z" fill="#360000" stroke="#000000"></path><path d="M573 108.9L619 229.4L637 95.4Z" fill="#310000" stroke="#000000"></path><path d="M313 339.7L314 348.1L368 312.3Z" fill="#360000" stroke="#000000"></path><path d="M287 273.3L305 285.3L345 280.1Z" fill="#3c0000" stroke="#000000"></path><path d="M313 339.7L304 348.9L314 348.1Z" fill="#5f2021" stroke="#000000"></path><path d="M480 71.7L419 121.6L439 133.4Z" fill="#5f2021" stroke="#000000"></path><path d="M439 133.4L419 121.6L431 134.9Z" fill="#310000" stroke="#000000"></path><path d="M431 134.9L419 121.6L382 187.1Z" fill="#501216" stroke="#000000"></path><path d="M286 294.1L304 348.9L313 339.7Z" fill="#662627" stroke="#000000"></path><path d="M314 348.1L316 387L392 371.4Z" fill="#310000" stroke="#000000"></path><path d="M304 348.9L316 387L314 348.1Z" fill="#501216" stroke="#000000"></path><path d="M364 419.6L360 453.7L411 416.6Z" fill="#490b10" stroke="#000000"></path><path d="M316 387L353 443.7L364 419.6Z" fill="#6e2d2d" stroke="#000000"></path><path d="M419 121.6L343 172.6L382 187.1Z" fill="#6e2d2d" stroke="#000000"></path><path d="M346 205.6L287 273.3L345 280.1Z" fill="#58191c" stroke="#000000"></path><path d="M353 443.7L360 453.7L364 419.6Z" fill="#58191c" stroke="#000000"></path><path d="M414 515.1L459 504.3L454 484.7Z" fill="#3c0000" stroke="#000000"></path><path d="M454 484.7L459 504.3L486 471.7Z" fill="#490b10" stroke="#000000"></path><path d="M459 504.3L530 509.1L486 471.7Z" fill="#420407" stroke="#000000"></path><path d="M547 475.1L601 518.3L622 401.6Z" fill="#310000" stroke="#000000"></path><path d="M576 91.4L573 108.9L614 92.4Z" fill="#662627" stroke="#000000"></path><path d="M471 130.7L480 71.7L439 133.4Z" fill="#420407" stroke="#000000"></path><path d="M328 143.7L334 170.4L343 172.6Z" fill="#501216" stroke="#000000"></path><path d="M343 172.6L334 170.4L346 205.6Z" fill="#490b10" stroke="#000000"></path><path d="M287 273.3L286 294.1L305 285.3Z" fill="#360000" stroke="#000000"></path><path d="M305 285.3L286 294.1L313 339.7Z" fill="#000000" stroke="#000000"></path><path d="M304 348.9L274 372L316 387Z" fill="#360000" stroke="#000000"></path><path d="M284 206L287 273.3L346 205.6Z" fill="#310000" stroke="#000000"></path><path d="M526 79.6L471 130.7L498 176.7Z" fill="#490b10" stroke="#000000"></path><path d="M573 108.9L526 79.6L498 176.7Z" fill="#310000" stroke="#000000"></path><path d="M619 229.4L642 226L637 95.4Z" fill="#58191c" stroke="#000000"></path><path d="M573 108.9L576 91.4L526 79.6Z" fill="#3c0000" stroke="#000000"></path><path d="M407 513.4L454 484.7L411 416.6Z" fill="#6e2d2d" stroke="#000000"></path><path d="M493 600L525 592.1L530 509.1Z" fill="#360000" stroke="#000000"></path><path d="M360 453.7L407 513.4L411 416.6Z" fill="#58191c" stroke="#000000"></path><path d="M719 414.4L723 353.7L675 355.6Z" fill="#420407" stroke="#000000"></path><path d="M675 355.6L723 353.7L657 306.3Z" fill="#5f2021" stroke="#000000"></path><path d="M700 437.9L634 390.7L622 401.6Z" fill="#501216" stroke="#000000"></path><path d="M526 79.6L480 71.7L498 85.6Z" fill="#360000" stroke="#000000"></path><path d="M498 85.6L480 71.7L471 130.7Z" fill="#6e2d2d" stroke="#000000"></path><path d="M328 131.9L328 143.7L343 172.6Z" fill="#3c0000" stroke="#000000"></path><path d="M328 131.9L343 172.6L419 121.6Z" fill="#490b10" stroke="#000000"></path><path d="M334 170.4L284 206L346 205.6Z" fill="#3c0000" stroke="#000000"></path><path d="M254 354.9L274 372L304 348.9Z" fill="#310000" stroke="#000000"></path><path d="M316 387L320 478.4L353 443.7Z" fill="#490b10" stroke="#000000"></path><path d="M353 443.7L320 478.4L360 453.7Z" fill="#420407" stroke="#000000"></path><path d="M360 453.7L320 478.4L407 513.4Z" fill="#360000" stroke="#000000"></path><path d="M254 354.9L304 348.9L286 294.1Z" fill="#662627" stroke="#000000"></path><path d="M295 141.4L284 206L334 170.4Z" fill="#490b10" stroke="#000000"></path><path d="M287 273.3L260 259L286 294.1Z" fill="#58191c" stroke="#000000"></path><path d="M737 275.9L733 267.1L657 306.3Z" fill="#5f2021" stroke="#000000"></path><path d="M637 95.4L642 226L653 224Z" fill="#501216" stroke="#000000"></path><path d="M596 565.4L601 518.3L530 509.1Z" fill="#662627" stroke="#000000"></path><path d="M530 509.1L601 518.3L547 475.1Z" fill="#662627" stroke="#000000"></path><path d="M723 353.7L737 275.9L657 306.3Z" fill="#6e2d2d" stroke="#000000"></path><path d="M637 95.4L653 224L703 156.3Z" fill="#58191c" stroke="#000000"></path><path d="M484 3.7L477 43.9L492 0Z" fill="#000000" stroke="#000000"></path><path d="M526 79.6L477 43.9L480 71.7Z" fill="#490b10" stroke="#000000"></path><path d="M329 115.3L328 131.9L419 121.6Z" fill="#6e2d2d" stroke="#000000"></path><path d="M328 143.7L295 141.4L334 170.4Z" fill="#000000" stroke="#000000"></path><path d="M284 206L260 259L287 273.3Z" fill="#6e2d2d" stroke="#000000"></path><path d="M653 520.6L700 437.9L622 401.6Z" fill="#490b10" stroke="#000000"></path><path d="M700 437.9L719 414.4L668 363.6Z" fill="#58191c" stroke="#000000"></path><path d="M783 303.9L749 263.4L737 275.9Z" fill="#000000" stroke="#000000"></path><path d="M257 370.7L269 399.4L274 372Z" fill="#6e2d2d" stroke="#000000"></path><path d="M274 372L269 399.4L316 387Z" fill="#58191c" stroke="#000000"></path><path d="M232 339.9L254 354.9L286 294.1Z" fill="#58191c" stroke="#000000"></path><path d="M269 399.4L320 478.4L316 387Z" fill="#000000" stroke="#000000"></path><path d="M704 159.1L653 224L674 234.3Z" fill="#6e2d2d" stroke="#000000"></path><path d="M604 34.9L526 79.6L576 91.4Z" fill="#6e2d2d" stroke="#000000"></path><path d="M254 354.9L257 370.7L274 372Z" fill="#6e2d2d" stroke="#000000"></path><path d="M770 199.1L674 234.3L733 267.1Z" fill="#310000" stroke="#000000"></path><path d="M770 199.1L704 159.1L674 234.3Z" fill="#5f2021" stroke="#000000"></path><path d="M704 159.1L703 156.3L653 224Z" fill="#6e2d2d" stroke="#000000"></path><path d="M314 94.6L329 115.3L419 121.6Z" fill="#310000" stroke="#000000"></path><path d="M328 131.9L295 141.4L328 143.7Z" fill="#420407" stroke="#000000"></path><path d="M404 555.3L427 547.4L414 515.1Z" fill="#310000" stroke="#000000"></path><path d="M414 515.1L427 547.4L459 504.3Z" fill="#000000" stroke="#000000"></path><path d="M404 555.3L414 515.1L407 513.4Z" fill="#360000" stroke="#000000"></path><path d="M783 303.9L737 275.9L723 353.7Z" fill="#360000" stroke="#000000"></path><path d="M737 275.9L749 263.4L733 267.1Z" fill="#310000" stroke="#000000"></path><path d="M744 116.4L720 115.7L703 156.3Z" fill="#360000" stroke="#000000"></path><path d="M404 555.3L434 552.3L427 547.4Z" fill="#310000" stroke="#000000"></path><path d="M427 547.4L434 552.3L459 504.3Z" fill="#360000" stroke="#000000"></path><path d="M329 115.3L295 141.4L328 131.9Z" fill="#000000" stroke="#000000"></path><path d="M284 206L225 262.4L260 259Z" fill="#3c0000" stroke="#000000"></path><path d="M459 31.9L477 43.9L484 3.7Z" fill="#662627" stroke="#000000"></path><path d="M480 71.7L459 31.9L419 121.6Z" fill="#58191c" stroke="#000000"></path><path d="M655 559.3L653 520.6L601 518.3Z" fill="#6e2d2d" stroke="#000000"></path><path d="M601 518.3L653 520.6L622 401.6Z" fill="#6e2d2d" stroke="#000000"></path><path d="M700 437.9L734 440.7L719 414.4Z" fill="#490b10" stroke="#000000"></path><path d="M774 370.6L761 356L775 384Z" fill="#360000" stroke="#000000"></path><path d="M775 384L761 356L723 353.7Z" fill="#420407" stroke="#000000"></path><path d="M219 317.7L232 339.9L286 294.1Z" fill="#5f2021" stroke="#000000"></path><path d="M254 354.9L232 339.9L257 370.7Z" fill="#662627" stroke="#000000"></path><path d="M257 370.7L215 414.7L269 399.4Z" fill="#490b10" stroke="#000000"></path><path d="M219 317.7L286 294.1L260 259Z" fill="#420407" stroke="#000000"></path><path d="M300 553.3L404 555.3L407 513.4Z" fill="#360000" stroke="#000000"></path><path d="M727 483.4L734 440.7L700 437.9Z" fill="#5f2021" stroke="#000000"></path><path d="M604 34.9L576 91.4L614 92.4Z" fill="#360000" stroke="#000000"></path><path d="M477 43.9L459 31.9L480 71.7Z" fill="#58191c" stroke="#000000"></path><path d="M172 213.1L225 262.4L284 206Z" fill="#420407" stroke="#000000"></path><path d="M427 0L314 94.6L419 121.6Z" fill="#310000" stroke="#000000"></path><path d="M329 115.3L314 94.6L295 141.4Z" fill="#310000" stroke="#000000"></path><path d="M295 141.4L235 125.3L284 206Z" fill="#310000" stroke="#000000"></path><path d="M703 156.3L681 92.6L637 95.4Z" fill="#6e2d2d" stroke="#000000"></path><path d="M654 34.6L604 34.9L614 92.4Z" fill="#662627" stroke="#000000"></path><path d="M720 115.7L681 92.6L703 156.3Z" fill="#420407" stroke="#000000"></path><path d="M225 262.4L219 317.7L260 259Z" fill="#420407" stroke="#000000"></path><path d="M530 509.1L459 504.3L493 600Z" fill="#3c0000" stroke="#000000"></path><path d="M525 592.1L596 565.4L530 509.1Z" fill="#501216" stroke="#000000"></path><path d="M269 399.4L279 482.3L320 478.4Z" fill="#000000" stroke="#000000"></path><path d="M320 478.4L300 553.3L407 513.4Z" fill="#420407" stroke="#000000"></path><path d="M232 454.3L279 482.3L269 399.4Z" fill="#000000" stroke="#000000"></path><path d="M215 414.7L257 370.7L232 339.9Z" fill="#662627" stroke="#000000"></path><path d="M775 384L723 353.7L719 414.4Z" fill="#5f2021" stroke="#000000"></path><path d="M761 356L783 303.9L723 353.7Z" fill="#5f2021" stroke="#000000"></path><path d="M774 370.6L783 303.9L761 356Z" fill="#58191c" stroke="#000000"></path><path d="M744 116.4L703 156.3L704 159.1Z" fill="#3c0000" stroke="#000000"></path><path d="M771 405.9L775 384L719 414.4Z" fill="#360000" stroke="#000000"></path><path d="M774 370.6L816 296.1L783 303.9Z" fill="#501216" stroke="#000000"></path><path d="M654 34.6L614 92.4L637 95.4Z" fill="#662627" stroke="#000000"></path><path d="M493 600L459 504.3L434 552.3Z" fill="#3c0000" stroke="#000000"></path><path d="M770 199.1L733 267.1L774 209.3Z" fill="#6e2d2d" stroke="#000000"></path><path d="M681 92.6L654 34.6L637 95.4Z" fill="#490b10" stroke="#000000"></path><path d="M653 520.6L727 483.4L700 437.9Z" fill="#490b10" stroke="#000000"></path><path d="M734 440.7L771 405.9L719 414.4Z" fill="#310000" stroke="#000000"></path><path d="M705 576.3L727 483.4L653 520.6Z" fill="#5f2021" stroke="#000000"></path><path d="M774 209.3L733 267.1L749 263.4Z" fill="#360000" stroke="#000000"></path><path d="M764 481.4L771 405.9L734 440.7Z" fill="#490b10" stroke="#000000"></path><path d="M796 266.4L774 209.3L749 263.4Z" fill="#58191c" stroke="#000000"></path><path d="M744 116.4L719 109.9L720 115.7Z" fill="#490b10" stroke="#000000"></path><path d="M720 115.7L719 109.9L681 92.6Z" fill="#000000" stroke="#000000"></path><path d="M444 600L493 600L434 552.3Z" fill="#360000" stroke="#000000"></path><path d="M314 94.6L265 117.7L295 141.4Z" fill="#662627" stroke="#000000"></path><path d="M525 592.1L543 600L596 565.4Z" fill="#310000" stroke="#000000"></path><path d="M596 565.4L655 559.3L601 518.3Z" fill="#501216" stroke="#000000"></path><path d="M493 600L543 600L525 592.1Z" fill="#310000" stroke="#000000"></path><path d="M492 0L477 43.9L550 0Z" fill="#5f2021" stroke="#000000"></path><path d="M459 31.9L427 0L419 121.6Z" fill="#490b10" stroke="#000000"></path><path d="M272 83.6L251 112.4L265 117.7Z" fill="#420407" stroke="#000000"></path><path d="M663 600L655 559.3L596 565.4Z" fill="#6e2d2d" stroke="#000000"></path><path d="M798 268L796 266.4L783 303.9Z" fill="#6e2d2d" stroke="#000000"></path><path d="M783 303.9L796 266.4L749 263.4Z" fill="#420407" stroke="#000000"></path><path d="M405 600L434 552.3L404 555.3Z" fill="#000000" stroke="#000000"></path><path d="M405 600L444 600L434 552.3Z" fill="#6e2d2d" stroke="#000000"></path><path d="M816 296.1L798 268L783 303.9Z" fill="#5f2021" stroke="#000000"></path><path d="M796 266.4L840 190.3L774 209.3Z" fill="#000000" stroke="#000000"></path><path d="M774 209.3L776 181.1L770 199.1Z" fill="#662627" stroke="#000000"></path><path d="M816 296.1L774 370.6L857 396Z" fill="#662627" stroke="#000000"></path><path d="M550 0L477 43.9L526 79.6Z" fill="#3c0000" stroke="#000000"></path><path d="M840 190.3L776 181.1L774 209.3Z" fill="#6e2d2d" stroke="#000000"></path><path d="M770 199.1L776 181.1L704 159.1Z" fill="#662627" stroke="#000000"></path><path d="M492 0L478 0L484 3.7Z" fill="#420407" stroke="#000000"></path><path d="M484 3.7L478 0L459 31.9Z" fill="#000000" stroke="#000000"></path><path d="M177 401.6L215 414.7L232 339.9Z" fill="#5f2021" stroke="#000000"></path><path d="M215 414.7L232 454.3L269 399.4Z" fill="#6e2d2d" stroke="#000000"></path><path d="M366 602.1L405 600L404 555.3Z" fill="#490b10" stroke="#000000"></path><path d="M604 34.9L550 0L526 79.6Z" fill="#3c0000" stroke="#000000"></path><path d="M543 600L583 600L596 565.4Z" fill="#501216" stroke="#000000"></path><path d="M776 181.1L744 116.4L704 159.1Z" fill="#000000" stroke="#000000"></path><path d="M665 22.7L654 34.6L681 92.6Z" fill="#490b10" stroke="#000000"></path><path d="M604 34.9L582 0L550 0Z" fill="#000000" stroke="#000000"></path><path d="M183 300L188 298.9L172 213.1Z" fill="#501216" stroke="#000000"></path><path d="M225 262.4L188 298.9L219 317.7Z" fill="#58191c" stroke="#000000"></path><path d="M219 317.7L177 401.6L232 339.9Z" fill="#501216" stroke="#000000"></path><path d="M300 553.3L320 478.4L272 538.1Z" fill="#360000" stroke="#000000"></path><path d="M665 22.7L681 92.6L738 59.7Z" fill="#6e2d2d" stroke="#000000"></path><path d="M478 0L427 0L459 31.9Z" fill="#6e2d2d" stroke="#000000"></path><path d="M272 83.6L265 117.7L314 94.6Z" fill="#6e2d2d" stroke="#000000"></path><path d="M265 117.7L235 125.3L295 141.4Z" fill="#5f2021" stroke="#000000"></path><path d="M589 0L582 0L604 34.9Z" fill="#3c0000" stroke="#000000"></path><path d="M172 213.1L188 298.9L225 262.4Z" fill="#5f2021" stroke="#000000"></path><path d="M188 298.9L183 300L219 317.7Z" fill="#3c0000" stroke="#000000"></path><path d="M302 0L272 83.6L314 94.6Z" fill="#662627" stroke="#000000"></path><path d="M654 34.6L589 0L604 34.9Z" fill="#662627" stroke="#000000"></path><path d="M233 97.9L235 125.3L251 112.4Z" fill="#662627" stroke="#000000"></path><path d="M251 112.4L235 125.3L265 117.7Z" fill="#360000" stroke="#000000"></path><path d="M857 396L774 370.6L775 384Z" fill="#58191c" stroke="#000000"></path><path d="M798 268L840 190.3L796 266.4Z" fill="#5f2021" stroke="#000000"></path><path d="M272 538.1L320 478.4L279 482.3Z" fill="#360000" stroke="#000000"></path><path d="M727 483.4L764 481.4L734 440.7Z" fill="#420407" stroke="#000000"></path><path d="M771 405.9L857 396L775 384Z" fill="#3c0000" stroke="#000000"></path><path d="M756 529.3L764 481.4L727 483.4Z" fill="#5f2021" stroke="#000000"></path><path d="M215 414.7L206 444.3L232 454.3Z" fill="#360000" stroke="#000000"></path><path d="M232 454.3L272 538.1L279 482.3Z" fill="#662627" stroke="#000000"></path><path d="M178 430.4L206 444.3L215 414.7Z" fill="#000000" stroke="#000000"></path><path d="M478 0L424 -13.3L427 0Z" fill="#000000" stroke="#000000"></path><path d="M427 0L302 0L314 94.6Z" fill="#6e2d2d" stroke="#000000"></path><path d="M492 0L424 -13.3L478 0Z" fill="#310000" stroke="#000000"></path><path d="M609 -47.1L424 -13.3L492 0Z" fill="#3c0000" stroke="#000000"></path><path d="M609 -47.1L492 0L550 0Z" fill="#420407" stroke="#000000"></path><path d="M609 -47.1L550 0L582 0Z" fill="#490b10" stroke="#000000"></path><path d="M175 527.6L272 538.1L232 454.3Z" fill="#360000" stroke="#000000"></path><path d="M359 600L366 602.1L404 555.3Z" fill="#58191c" stroke="#000000"></path><path d="M271 626.1L603 632.1L444 600Z" fill="#6e2d2d" stroke="#000000"></path><path d="M444 600L603 632.1L493 600Z" fill="#5f2021" stroke="#000000"></path><path d="M493 600L603 632.1L543 600Z" fill="#5f2021" stroke="#000000"></path><path d="M543 600L603 632.1L583 600Z" fill="#490b10" stroke="#000000"></path><path d="M359 600L404 555.3L300 553.3Z" fill="#6e2d2d" stroke="#000000"></path><path d="M738 63.9L681 92.6L719 109.9Z" fill="#360000" stroke="#000000"></path><path d="M654 34.6L665 22.7L589 0Z" fill="#420407" stroke="#000000"></path><path d="M324 600L359 600L300 553.3Z" fill="#6e2d2d" stroke="#000000"></path><path d="M272 83.6L233 97.9L251 112.4Z" fill="#662627" stroke="#000000"></path><path d="M235 125.3L172 213.1L284 206Z" fill="#000000" stroke="#000000"></path><path d="M214 55.9L233 97.9L272 83.6Z" fill="#490b10" stroke="#000000"></path><path d="M183 300L177 401.6L219 317.7Z" fill="#662627" stroke="#000000"></path><path d="M169 211.6L172 213.1L151 168.7Z" fill="#662627" stroke="#000000"></path><path d="M126 476.7L158 450.7L106 473.4Z" fill="#420407" stroke="#000000"></path><path d="M744 116.4L738 63.9L719 109.9Z" fill="#000000" stroke="#000000"></path><path d="M787 111.7L738 63.9L744 116.4Z" fill="#490b10" stroke="#000000"></path><path d="M738 59.7L738 63.9L780 15.9Z" fill="#6e2d2d" stroke="#000000"></path><path d="M583 600L663 600L596 565.4Z" fill="#000000" stroke="#000000"></path><path d="M655 559.3L705 576.3L653 520.6Z" fill="#6e2d2d" stroke="#000000"></path><path d="M603 632.1L663 600L583 600Z" fill="#662627" stroke="#000000"></path><path d="M158 214.1L169 211.6L151 168.7Z" fill="#420407" stroke="#000000"></path><path d="M172 213.1L158 214.1L183 300Z" fill="#58191c" stroke="#000000"></path><path d="M787 111.7L744 116.4L776 181.1Z" fill="#3c0000" stroke="#000000"></path><path d="M738 63.9L738 59.7L681 92.6Z" fill="#5f2021" stroke="#000000"></path><path d="M663 600L705 576.3L655 559.3Z" fill="#360000" stroke="#000000"></path><path d="M705 576.3L756 529.3L727 483.4Z" fill="#5f2021" stroke="#000000"></path><path d="M764 481.4L857 396L771 405.9Z" fill="#58191c" stroke="#000000"></path><path d="M313 600L324 600L300 553.3Z" fill="#000000" stroke="#000000"></path><path d="M359 600L324 600L366 602.1Z" fill="#360000" stroke="#000000"></path><path d="M158 450.7L178 430.4L177 401.6Z" fill="#310000" stroke="#000000"></path><path d="M177 401.6L178 430.4L215 414.7Z" fill="#490b10" stroke="#000000"></path><path d="M206 444.3L190 462.4L232 454.3Z" fill="#490b10" stroke="#000000"></path><path d="M272 599.1L313 600L300 553.3Z" fill="#58191c" stroke="#000000"></path><path d="M271 626.1L405 600L366 602.1Z" fill="#000000" stroke="#000000"></path><path d="M271 626.1L444 600L405 600Z" fill="#000000" stroke="#000000"></path><path d="M178 430.4L190 462.4L206 444.3Z" fill="#58191c" stroke="#000000"></path><path d="M840 190.3L787 111.7L776 181.1Z" fill="#000000" stroke="#000000"></path><path d="M254 559.1L300 553.3L272 538.1Z" fill="#000000" stroke="#000000"></path><path d="M324 600L271 626.1L366 602.1Z" fill="#000000" stroke="#000000"></path><path d="M179 132.9L172 213.1L235 125.3Z" fill="#000000" stroke="#000000"></path><path d="M169 211.6L158 214.1L172 213.1Z" fill="#420407" stroke="#000000"></path><path d="M175 527.6L254 559.1L272 538.1Z" fill="#5f2021" stroke="#000000"></path><path d="M663 600L693 601.1L705 576.3Z" fill="#420407" stroke="#000000"></path><path d="M705 576.3L771 577.3L756 529.3Z" fill="#490b10" stroke="#000000"></path><path d="M603 632.1L693 601.1L663 600Z" fill="#5f2021" stroke="#000000"></path><path d="M754 0L737 35.6L780 15.9Z" fill="#3c0000" stroke="#000000"></path><path d="M738 59.7L737 35.6L665 22.7Z" fill="#6e2d2d" stroke="#000000"></path><path d="M665 22.7L609 -47.1L589 0Z" fill="#501216" stroke="#000000"></path><path d="M900 245.3L840 190.3L798 268Z" fill="#3c0000" stroke="#000000"></path><path d="M754 0L727 0L737 35.6Z" fill="#3c0000" stroke="#000000"></path><path d="M424 -13.3L302 0L427 0Z" fill="#420407" stroke="#000000"></path><path d="M187 85.7L179 132.9L233 97.9Z" fill="#662627" stroke="#000000"></path><path d="M233 97.9L179 132.9L235 125.3Z" fill="#000000" stroke="#000000"></path><path d="M727 0L609 -47.1L665 22.7Z" fill="#5f2021" stroke="#000000"></path><path d="M589 0L609 -47.1L582 0Z" fill="#310000" stroke="#000000"></path><path d="M239 -48.1L266 0L302 0Z" fill="#000000" stroke="#000000"></path><path d="M787 641.1L717 600L693 601.1Z" fill="#58191c" stroke="#000000"></path><path d="M693 601.1L717 600L705 576.3Z" fill="#000000" stroke="#000000"></path><path d="M787 641.1L718 600L717 600Z" fill="#3c0000" stroke="#000000"></path><path d="M717 600L718 600L705 576.3Z" fill="#490b10" stroke="#000000"></path><path d="M796 553.4L791 529.3L756 529.3Z" fill="#490b10" stroke="#000000"></path><path d="M756 529.3L791 529.3L764 481.4Z" fill="#662627" stroke="#000000"></path><path d="M816 296.1L900 245.3L798 268Z" fill="#6e2d2d" stroke="#000000"></path><path d="M178 430.4L158 450.7L190 462.4Z" fill="#000000" stroke="#000000"></path><path d="M190 462.4L175 527.6L232 454.3Z" fill="#501216" stroke="#000000"></path><path d="M96 386.7L177 401.6L89 344Z" fill="#662627" stroke="#000000"></path><path d="M887 480.6L857 396L764 481.4Z" fill="#5f2021" stroke="#000000"></path><path d="M271 626.1L272 599.1L233 600Z" fill="#360000" stroke="#000000"></path><path d="M254 559.1L272 599.1L300 553.3Z" fill="#490b10" stroke="#000000"></path><path d="M313 600L271 626.1L324 600Z" fill="#662627" stroke="#000000"></path><path d="M179 132.9L151 168.7L172 213.1Z" fill="#310000" stroke="#000000"></path><path d="M158 214.1L113 282.3L183 300Z" fill="#000000" stroke="#000000"></path><path d="M266 0L214 55.9L272 83.6Z" fill="#360000" stroke="#000000"></path><path d="M115 83.6L81 165.7L151 168.7Z" fill="#000000" stroke="#000000"></path><path d="M214 55.9L187 85.7L233 97.9Z" fill="#3c0000" stroke="#000000"></path><path d="M737 35.6L738 59.7L780 15.9Z" fill="#58191c" stroke="#000000"></path><path d="M737 35.6L727 0L665 22.7Z" fill="#5f2021" stroke="#000000"></path><path d="M857 396L879 313.7L816 296.1Z" fill="#58191c" stroke="#000000"></path><path d="M302 0L266 0L272 83.6Z" fill="#420407" stroke="#000000"></path><path d="M218 0L266 0L239 -48.1Z" fill="#58191c" stroke="#000000"></path><path d="M100 244.9L113 282.3L158 214.1Z" fill="#58191c" stroke="#000000"></path><path d="M718 600L771 577.3L705 576.3Z" fill="#501216" stroke="#000000"></path><path d="M791 529.3L887 480.6L764 481.4Z" fill="#420407" stroke="#000000"></path><path d="M771 577.3L796 553.4L756 529.3Z" fill="#420407" stroke="#000000"></path><path d="M152 491.6L190 462.4L158 450.7Z" fill="#3c0000" stroke="#000000"></path><path d="M169 521.1L175 527.6L190 462.4Z" fill="#310000" stroke="#000000"></path><path d="M126 476.7L152 491.6L158 450.7Z" fill="#3c0000" stroke="#000000"></path><path d="M152 491.6L169 521.1L190 462.4Z" fill="#310000" stroke="#000000"></path><path d="M233 600L272 599.1L254 559.1Z" fill="#501216" stroke="#000000"></path><path d="M272 599.1L271 626.1L313 600Z" fill="#310000" stroke="#000000"></path><path d="M780 15.9L738 63.9L787 111.7Z" fill="#000000" stroke="#000000"></path><path d="M727 0L754 0L609 -47.1Z" fill="#000000" stroke="#000000"></path><path d="M219 600L233 600L254 559.1Z" fill="#490b10" stroke="#000000"></path><path d="M219 600L254 559.1L179 587.3Z" fill="#501216" stroke="#000000"></path><path d="M900 384.9L895 355.9L857 396Z" fill="#310000" stroke="#000000"></path><path d="M857 396L895 355.9L879 313.7Z" fill="#501216" stroke="#000000"></path><path d="M879 313.7L900 269L816 296.1Z" fill="#662627" stroke="#000000"></path><path d="M839 600L817 547.1L796 553.4Z" fill="#420407" stroke="#000000"></path><path d="M796 553.4L817 547.1L791 529.3Z" fill="#501216" stroke="#000000"></path><path d="M96 232.4L100 244.9L158 214.1Z" fill="#6e2d2d" stroke="#000000"></path><path d="M96 386.7L158 450.7L177 401.6Z" fill="#420407" stroke="#000000"></path><path d="M96 232.4L158 214.1L151 168.7Z" fill="#310000" stroke="#000000"></path><path d="M823 23.9L780 15.9L787 111.7Z" fill="#3c0000" stroke="#000000"></path><path d="M946 367.7L900 269L879 313.7Z" fill="#360000" stroke="#000000"></path><path d="M840 190.3L850 83.6L787 111.7Z" fill="#58191c" stroke="#000000"></path><path d="M900 269L900 245.3L816 296.1Z" fill="#420407" stroke="#000000"></path><path d="M179 587.3L254 559.1L175 527.6Z" fill="#490b10" stroke="#000000"></path><path d="M233 600L183 651.1L271 626.1Z" fill="#5f2021" stroke="#000000"></path><path d="M718 600L777 600L771 577.3Z" fill="#6e2d2d" stroke="#000000"></path><path d="M771 577.3L777 600L796 553.4Z" fill="#5f2021" stroke="#000000"></path><path d="M812 615.1L777 600L787 641.1Z" fill="#3c0000" stroke="#000000"></path><path d="M72 244.4L96 232.4L68 178.3Z" fill="#6e2d2d" stroke="#000000"></path><path d="M177 401.6L183 300L89 344Z" fill="#420407" stroke="#000000"></path><path d="M900 245.3L900 222.1L840 190.3Z" fill="#490b10" stroke="#000000"></path><path d="M901 391.6L900 384.9L857 396Z" fill="#58191c" stroke="#000000"></path><path d="M895 355.9L946 367.7L879 313.7Z" fill="#420407" stroke="#000000"></path><path d="M152 491.6L110 519.6L169 521.1Z" fill="#310000" stroke="#000000"></path><path d="M109 545.4L179 587.3L175 527.6Z" fill="#360000" stroke="#000000"></path><path d="M183 300L113 282.3L89 344Z" fill="#6e2d2d" stroke="#000000"></path><path d="M89 344L113 282.3L54 260Z" fill="#420407" stroke="#000000"></path><path d="M86 256.1L113 282.3L100 244.9Z" fill="#310000" stroke="#000000"></path><path d="M900 222.1L900 217.6L840 190.3Z" fill="#6e2d2d" stroke="#000000"></path><path d="M900 398.4L901 391.6L857 396Z" fill="#000000" stroke="#000000"></path><path d="M900 384.9L946 367.7L895 355.9Z" fill="#000000" stroke="#000000"></path><path d="M946 367.7L916 152.3L900 245.3Z" fill="#501216" stroke="#000000"></path><path d="M900 245.3L916 152.3L900 222.1Z" fill="#420407" stroke="#000000"></path><path d="M900 222.1L916 152.3L900 217.6Z" fill="#58191c" stroke="#000000"></path><path d="M239 -48.1L302 0L424 -13.3Z" fill="#000000" stroke="#000000"></path><path d="M266 0L218 0L214 55.9Z" fill="#420407" stroke="#000000"></path><path d="M214 55.9L152 34.6L187 85.7Z" fill="#662627" stroke="#000000"></path><path d="M81 165.7L96 232.4L151 168.7Z" fill="#501216" stroke="#000000"></path><path d="M909 426.3L900 398.4L857 396Z" fill="#420407" stroke="#000000"></path><path d="M73 352.9L86 349.9L89 344Z" fill="#501216" stroke="#000000"></path><path d="M89 344L86 349.9L96 386.7Z" fill="#501216" stroke="#000000"></path><path d="M96 232.4L86 256.1L100 244.9Z" fill="#3c0000" stroke="#000000"></path><path d="M895 157.7L850 83.6L840 190.3Z" fill="#662627" stroke="#000000"></path><path d="M900 217.6L895 157.7L840 190.3Z" fill="#360000" stroke="#000000"></path><path d="M170 600L179 587.3L109 545.4Z" fill="#310000" stroke="#000000"></path><path d="M219 600L183 651.1L233 600Z" fill="#58191c" stroke="#000000"></path><path d="M96 386.7L106 473.4L158 450.7Z" fill="#5f2021" stroke="#000000"></path><path d="M126 476.7L110 519.6L152 491.6Z" fill="#420407" stroke="#000000"></path><path d="M53 475.4L106 473.4L96 386.7Z" fill="#3c0000" stroke="#000000"></path><path d="M900 483.7L887 480.6L900 500.3Z" fill="#420407" stroke="#000000"></path><path d="M817 547.1L887 480.6L791 529.3Z" fill="#3c0000" stroke="#000000"></path><path d="M54 260L73 352.9L89 344Z" fill="#360000" stroke="#000000"></path><path d="M86 349.9L73 352.9L96 386.7Z" fill="#662627" stroke="#000000"></path><path d="M239 -48.1L196 0L218 0Z" fill="#5f2021" stroke="#000000"></path><path d="M218 0L196 0L214 55.9Z" fill="#310000" stroke="#000000"></path><path d="M850 83.6L823 23.9L787 111.7Z" fill="#6e2d2d" stroke="#000000"></path><path d="M780 15.9L813 0L754 0Z" fill="#420407" stroke="#000000"></path><path d="M845 0L823 23.9L859 2.7Z" fill="#310000" stroke="#000000"></path><path d="M900 457.6L909 426.3L857 396Z" fill="#501216" stroke="#000000"></path><path d="M943 420.4L946 367.7L901 391.6Z" fill="#360000" stroke="#000000"></path><path d="M901 391.6L946 367.7L900 384.9Z" fill="#58191c" stroke="#000000"></path><path d="M96 232.4L72 244.4L86 256.1Z" fill="#501216" stroke="#000000"></path><path d="M86 256.1L54 260L113 282.3Z" fill="#662627" stroke="#000000"></path><path d="M115 83.6L179 132.9L187 85.7Z" fill="#3c0000" stroke="#000000"></path><path d="M887 480.6L900 457.6L857 396Z" fill="#3c0000" stroke="#000000"></path><path d="M54 260L70 248.1L72 244.4Z" fill="#6e2d2d" stroke="#000000"></path><path d="M72 244.4L70 248.1L86 256.1Z" fill="#490b10" stroke="#000000"></path><path d="M900 483.7L900 470.1L887 480.6Z" fill="#490b10" stroke="#000000"></path><path d="M887 480.6L900 470.1L900 457.6Z" fill="#58191c" stroke="#000000"></path><path d="M900 457.6L943 420.4L909 426.3Z" fill="#3c0000" stroke="#000000"></path><path d="M609 -47.1L239 -48.1L424 -13.3Z" fill="#501216" stroke="#000000"></path><path d="M832 0L813 0L823 23.9Z" fill="#501216" stroke="#000000"></path><path d="M823 23.9L813 0L780 15.9Z" fill="#5f2021" stroke="#000000"></path><path d="M754 0L813 0L609 -47.1Z" fill="#5f2021" stroke="#000000"></path><path d="M148 21.9L152 34.6L196 0Z" fill="#000000" stroke="#000000"></path><path d="M196 0L152 34.6L214 55.9Z" fill="#360000" stroke="#000000"></path><path d="M115 83.6L151 168.7L179 132.9Z" fill="#3c0000" stroke="#000000"></path><path d="M900 500.3L887 480.6L817 547.1Z" fill="#662627" stroke="#000000"></path><path d="M900 470.1L943 420.4L900 457.6Z" fill="#490b10" stroke="#000000"></path><path d="M152 34.6L115 83.6L187 85.7Z" fill="#310000" stroke="#000000"></path><path d="M916 152.3L900 119.4L895 157.7Z" fill="#420407" stroke="#000000"></path><path d="M895 157.7L900 119.4L850 83.6Z" fill="#000000" stroke="#000000"></path><path d="M916 152.3L895 157.7L900 217.6Z" fill="#420407" stroke="#000000"></path><path d="M109 545.4L175 527.6L169 521.1Z" fill="#000000" stroke="#000000"></path><path d="M179 587.3L170 600L219 600Z" fill="#3c0000" stroke="#000000"></path><path d="M787 641.1L777 600L718 600Z" fill="#58191c" stroke="#000000"></path><path d="M777 600L812 615.1L796 553.4Z" fill="#490b10" stroke="#000000"></path><path d="M916 152.3L900 117.7L900 119.4Z" fill="#3c0000" stroke="#000000"></path><path d="M900 119.4L900 117.7L850 83.6Z" fill="#6e2d2d" stroke="#000000"></path><path d="M109 545.4L110 519.6L96 544.3Z" fill="#58191c" stroke="#000000"></path><path d="M106 473.4L110 519.6L126 476.7Z" fill="#58191c" stroke="#000000"></path><path d="M946 367.7L900 245.3L900 269Z" fill="#662627" stroke="#000000"></path><path d="M603 632.1L787 641.1L693 601.1Z" fill="#5f2021" stroke="#000000"></path><path d="M183 651.1L787 641.1L603 632.1Z" fill="#000000" stroke="#000000"></path><path d="M19 186.6L54 260L72 244.4Z" fill="#000000" stroke="#000000"></path><path d="M70 248.1L54 260L86 256.1Z" fill="#3c0000" stroke="#000000"></path><path d="M893 83.6L889 86.6L900 117.7Z" fill="#000000" stroke="#000000"></path><path d="M900 117.7L889 86.6L850 83.6Z" fill="#490b10" stroke="#000000"></path><path d="M943 420.4L900 398.4L909 426.3Z" fill="#420407" stroke="#000000"></path><path d="M856 597.1L900 500.3L817 547.1Z" fill="#5f2021" stroke="#000000"></path><path d="M19 186.6L68 178.3L-4 167.3Z" fill="#000000" stroke="#000000"></path><path d="M81 165.7L68 178.3L96 232.4Z" fill="#490b10" stroke="#000000"></path><path d="M159 -41.1L148 21.9L196 0Z" fill="#3c0000" stroke="#000000"></path><path d="M152 34.6L118 35.7L115 83.6Z" fill="#5f2021" stroke="#000000"></path><path d="M845 0L832 0L823 23.9Z" fill="#000000" stroke="#000000"></path><path d="M813 0L900 -14.1L609 -47.1Z" fill="#6e2d2d" stroke="#000000"></path><path d="M850 600L839 600L812 615.1Z" fill="#490b10" stroke="#000000"></path><path d="M812 615.1L839 600L796 553.4Z" fill="#310000" stroke="#000000"></path><path d="M916 152.3L893 83.6L900 117.7Z" fill="#501216" stroke="#000000"></path><path d="M889 86.6L893 83.6L850 83.6Z" fill="#490b10" stroke="#000000"></path><path d="M943 420.4L900 470.1L900 483.7Z" fill="#5f2021" stroke="#000000"></path><path d="M943 420.4L901 391.6L900 398.4Z" fill="#310000" stroke="#000000"></path><path d="M96 544.3L110 519.6L53 475.4Z" fill="#3c0000" stroke="#000000"></path><path d="M110 519.6L109 545.4L169 521.1Z" fill="#000000" stroke="#000000"></path><path d="M110 519.6L106 473.4L53 475.4Z" fill="#5f2021" stroke="#000000"></path><path d="M900 500.3L943 420.4L900 483.7Z" fill="#310000" stroke="#000000"></path><path d="M787 641.1L850 600L812 615.1Z" fill="#360000" stroke="#000000"></path><path d="M839 600L856 597.1L817 547.1Z" fill="#490b10" stroke="#000000"></path><path d="M900 500.3L900 600L943 420.4Z" fill="#360000" stroke="#000000"></path><path d="M859 2.7L823 23.9L887 19.9Z" fill="#360000" stroke="#000000"></path><path d="M832 0L900 -14.1L813 0Z" fill="#501216" stroke="#000000"></path><path d="M900 600L856 597.1L850 600Z" fill="#490b10" stroke="#000000"></path><path d="M850 600L856 597.1L839 600Z" fill="#58191c" stroke="#000000"></path><path d="M148 21.9L118 35.7L152 34.6Z" fill="#420407" stroke="#000000"></path><path d="M115 83.6L68 76.4L81 165.7Z" fill="#662627" stroke="#000000"></path><path d="M108 0L118 35.7L148 21.9Z" fill="#420407" stroke="#000000"></path><path d="M53 475.4L96 386.7L0 420.6Z" fill="#420407" stroke="#000000"></path><path d="M95 600L132 634.1L170 600Z" fill="#3c0000" stroke="#000000"></path><path d="M170 600L183 651.1L219 600Z" fill="#000000" stroke="#000000"></path><path d="M271 626.1L183 651.1L603 632.1Z" fill="#58191c" stroke="#000000"></path><path d="M132 634.1L183 651.1L170 600Z" fill="#501216" stroke="#000000"></path><path d="M887 19.9L823 23.9L850 83.6Z" fill="#310000" stroke="#000000"></path><path d="M845 0L900 -14.1L832 0Z" fill="#310000" stroke="#000000"></path><path d="M13 378.6L96 386.7L73 352.9Z" fill="#501216" stroke="#000000"></path><path d="M900 0L887 19.9L893 83.6Z" fill="#000000" stroke="#000000"></path><path d="M893 83.6L887 19.9L850 83.6Z" fill="#310000" stroke="#000000"></path><path d="M239 -48.1L159 -41.1L196 0Z" fill="#490b10" stroke="#000000"></path><path d="M87 0L68 76.4L118 35.7Z" fill="#360000" stroke="#000000"></path><path d="M118 35.7L68 76.4L115 83.6Z" fill="#490b10" stroke="#000000"></path><path d="M0 318.1L12 322.7L0 255.4Z" fill="#5f2021" stroke="#000000"></path><path d="M19 186.6L72 244.4L68 178.3Z" fill="#310000" stroke="#000000"></path><path d="M54 260L12 322.7L73 352.9Z" fill="#662627" stroke="#000000"></path><path d="M12 322.7L13 378.6L73 352.9Z" fill="#5f2021" stroke="#000000"></path><path d="M-4 167.3L68 178.3L0 108.6Z" fill="#310000" stroke="#000000"></path><path d="M95 600L170 600L109 545.4Z" fill="#662627" stroke="#000000"></path><path d="M95 600L109 545.4L74 575.3Z" fill="#3c0000" stroke="#000000"></path><path d="M159 -41.1L108 0L148 21.9Z" fill="#360000" stroke="#000000"></path><path d="M0 255.4L12 322.7L54 260Z" fill="#662627" stroke="#000000"></path><path d="M12 322.7L0 364L13 378.6Z" fill="#490b10" stroke="#000000"></path><path d="M787 641.1L900 600L850 600Z" fill="#420407" stroke="#000000"></path><path d="M856 597.1L900 600L900 500.3Z" fill="#490b10" stroke="#000000"></path><path d="M0 250.3L0 255.4L54 260Z" fill="#5f2021" stroke="#000000"></path><path d="M74 575.3L96 544.3L53 475.4Z" fill="#310000" stroke="#000000"></path><path d="M74 575.3L109 545.4L96 544.3Z" fill="#501216" stroke="#000000"></path><path d="M19 186.6L0 250.3L54 260Z" fill="#6e2d2d" stroke="#000000"></path><path d="M95 600L121 633.1L132 634.1Z" fill="#58191c" stroke="#000000"></path><path d="M132 634.1L121 633.1L183 651.1Z" fill="#490b10" stroke="#000000"></path><path d="M0 318.1L0 364L12 322.7Z" fill="#310000" stroke="#000000"></path><path d="M13 378.6L0 417.4L96 386.7Z" fill="#3c0000" stroke="#000000"></path><path d="M900 -14.1L900 0L916 152.3Z" fill="#6e2d2d" stroke="#000000"></path><path d="M916 152.3L900 0L893 83.6Z" fill="#58191c" stroke="#000000"></path><path d="M887 19.9L900 0L859 2.7Z" fill="#310000" stroke="#000000"></path><path d="M859 2.7L900 -14.1L845 0Z" fill="#501216" stroke="#000000"></path><path d="M0 476.1L74 575.3L53 475.4Z" fill="#310000" stroke="#000000"></path><path d="M95 600L0 600L121 633.1Z" fill="#6e2d2d" stroke="#000000"></path><path d="M159 -41.1L87 0L108 0Z" fill="#6e2d2d" stroke="#000000"></path><path d="M108 0L87 0L118 35.7Z" fill="#5f2021" stroke="#000000"></path><path d="M0 108.6L68 178.3L81 165.7Z" fill="#662627" stroke="#000000"></path><path d="M0 364L0 417.4L13 378.6Z" fill="#490b10" stroke="#000000"></path><path d="M0 417.4L0 420.6L96 386.7Z" fill="#662627" stroke="#000000"></path><path d="M946 367.7L900 -14.1L916 152.3Z" fill="#490b10" stroke="#000000"></path><path d="M900 0L900 -14.1L859 2.7Z" fill="#5f2021" stroke="#000000"></path><path d="M0 420.6L0 429.3L53 475.4Z" fill="#420407" stroke="#000000"></path><path d="M0 429.3L0 430.7L53 475.4Z" fill="#000000" stroke="#000000"></path><path d="M0 430.7L0 433.9L53 475.4Z" fill="#490b10" stroke="#000000"></path><path d="M0 108.6L81 165.7L68 76.4Z" fill="#000000" stroke="#000000"></path><path d="M19 186.6L-29 250.1L0 250.3Z" fill="#58191c" stroke="#000000"></path><path d="M0 250.3L-29 250.1L0 255.4Z" fill="#5f2021" stroke="#000000"></path><path d="M0 255.4L-48 271L0 318.1Z" fill="#662627" stroke="#000000"></path><path d="M0 318.1L-48 271L0 364Z" fill="#5f2021" stroke="#000000"></path><path d="M0 364L-48 271L0 417.4Z" fill="#6e2d2d" stroke="#000000"></path><path d="M0 417.4L-48 271L0 420.6Z" fill="#5f2021" stroke="#000000"></path><path d="M0 420.6L-48 271L0 429.3Z" fill="#501216" stroke="#000000"></path><path d="M0 429.3L-48 271L0 430.7Z" fill="#5f2021" stroke="#000000"></path><path d="M0 430.7L-48 271L0 433.9Z" fill="#420407" stroke="#000000"></path><path d="M159 -41.1L69 0L87 0Z" fill="#501216" stroke="#000000"></path><path d="M87 0L69 0L68 76.4Z" fill="#6e2d2d" stroke="#000000"></path><path d="M0 433.9L0 476.1L53 475.4Z" fill="#490b10" stroke="#000000"></path><path d="M-51 600L0 476.1L0 433.9Z" fill="#3c0000" stroke="#000000"></path><path d="M-4 167.3L-29 250.1L19 186.6Z" fill="#000000" stroke="#000000"></path><path d="M7 79.9L0 108.6L68 76.4Z" fill="#360000" stroke="#000000"></path><path d="M-4 167.3L-48 271L-29 250.1Z" fill="#360000" stroke="#000000"></path><path d="M0 43.9L7 79.9L68 76.4Z" fill="#420407" stroke="#000000"></path><path d="M0 43.9L0 78.7L7 79.9Z" fill="#310000" stroke="#000000"></path><path d="M7 79.9L0 78.7L0 108.6Z" fill="#501216" stroke="#000000"></path><path d="M0 108.6L-48 271L-4 167.3Z" fill="#662627" stroke="#000000"></path><path d="M0 78.7L-48 271L0 108.6Z" fill="#3c0000" stroke="#000000"></path><path d="M-29 250.1L-48 271L0 255.4Z" fill="#6e2d2d" stroke="#000000"></path><path d="M69 0L0 43.9L68 76.4Z" fill="#501216" stroke="#000000"></path><path d="M0 78.7L0 43.9L-48 271Z" fill="#662627" stroke="#000000"></path><path d="M13 -13.3L13 0L69 0Z" fill="#5f2021" stroke="#000000"></path><path d="M69 0L13 0L0 43.9Z" fill="#000000" stroke="#000000"></path><path d="M159 -41.1L13 -13.3L69 0Z" fill="#490b10" stroke="#000000"></path><path d="M13 0L0 0L0 43.9Z" fill="#000000" stroke="#000000"></path><path d="M-51 600L0 600L0 476.1Z" fill="#000000" stroke="#000000"></path><path d="M0 476.1L0 600L74 575.3Z" fill="#360000" stroke="#000000"></path><path d="M74 575.3L0 600L95 600Z" fill="#3c0000" stroke="#000000"></path><path d="M121 633.1L-51 600L183 651.1Z" fill="#420407" stroke="#000000"></path><path d="M13 -13.3L0 0L13 0Z" fill="#490b10" stroke="#000000"></path><path d="M0 43.9L0 0L-48 271Z" fill="#5f2021" stroke="#000000"></path><path d="M-48 271L-51 600L0 433.9Z" fill="#5f2021" stroke="#000000"></path><path d="M0 600L-51 600L121 633.1Z" fill="#501216" stroke="#000000"></path></g></svg>