<svg id="visual" viewBox="0 0 900 600" width="900" height="600" xmlns="http://www.w3.org/2000/svg" xmlns:xlink="http://www.w3.org/1999/xlink" version="1.1"><g stroke-width="1" stroke-linejoin="bevel"><path d="M450 271.1L443 260.4L437 261.3Z" fill="#005d04" stroke="#005d04"></path><path d="M450 271.1L459 241.3L443 260.4Z" fill="#002200" stroke="#002200"></path><path d="M443 260.4L459 241.3L437 261.3Z" fill="#003400" stroke="#003400"></path><path d="M413 224.3L401 261L437 261.3Z" fill="#005d04" stroke="#005d04"></path><path d="M437 261.3L401 261L450 271.1Z" fill="#000000" stroke="#000000"></path><path d="M459 241.3L413 224.3L437 261.3Z" fill="#005203" stroke="#005203"></path><path d="M491 336.9L503 307.9L450 271.1Z" fill="#007207" stroke="#007207"></path><path d="M450 271.1L503 307.9L459 241.3Z" fill="#000000" stroke="#000000"></path><path d="M411 178.1L400 206L413 224.3Z" fill="#005d04" stroke="#005d04"></path><path d="M413 224.3L400 206L401 261Z" fill="#003400" stroke="#003400"></path><path d="M500 201.6L467 191.1L459 241.3Z" fill="#005203" stroke="#005203"></path><path d="M459 241.3L467 191.1L413 224.3Z" fill="#001c00" stroke="#001c00"></path><path d="M450 364L491 336.9L450 271.1Z" fill="#007207" stroke="#007207"></path><path d="M531 217.1L500 201.6L459 241.3Z" fill="#002200" stroke="#002200"></path><path d="M405 371.7L450 364L450 271.1Z" fill="#004802" stroke="#004802"></path><path d="M467 191.1L411 178.1L413 224.3Z" fill="#000000" stroke="#000000"></path><path d="M342 290L356 316.9L401 261Z" fill="#005d04" stroke="#005d04"></path><path d="M401 261L405 371.7L450 271.1Z" fill="#000000" stroke="#000000"></path><path d="M342 290L401 261L400 206Z" fill="#001c00" stroke="#001c00"></path><path d="M282 249.3L342 290L281 223.4Z" fill="#000000" stroke="#000000"></path><path d="M429 143.6L409 173.1L411 178.1Z" fill="#003400" stroke="#003400"></path><path d="M411 178.1L409 173.1L400 206Z" fill="#003400" stroke="#003400"></path><path d="M503 307.9L531 217.1L459 241.3Z" fill="#000000" stroke="#000000"></path><path d="M500 201.6L485 172.7L467 191.1Z" fill="#001c00" stroke="#001c00"></path><path d="M467 191.1L455 144.6L411 178.1Z" fill="#003400" stroke="#003400"></path><path d="M542 125.7L485 172.7L500 201.6Z" fill="#002200" stroke="#002200"></path><path d="M356 316.9L405 371.7L401 261Z" fill="#001c00" stroke="#001c00"></path><path d="M405 371.7L449 378.6L450 364Z" fill="#004802" stroke="#004802"></path><path d="M450 364L449 378.6L491 336.9Z" fill="#004802" stroke="#004802"></path><path d="M312 357L359 350.1L356 316.9Z" fill="#003400" stroke="#003400"></path><path d="M356 316.9L359 350.1L405 371.7Z" fill="#003400" stroke="#003400"></path><path d="M587 289L557 262.3L503 307.9Z" fill="#002200" stroke="#002200"></path><path d="M503 307.9L557 262.3L531 217.1Z" fill="#002200" stroke="#002200"></path><path d="M360 143.3L367 169.4L409 173.1Z" fill="#000000" stroke="#000000"></path><path d="M409 173.1L367 169.4L400 206Z" fill="#003400" stroke="#003400"></path><path d="M485 172.7L455 144.6L467 191.1Z" fill="#002a00" stroke="#002a00"></path><path d="M455 144.6L429 143.6L411 178.1Z" fill="#005203" stroke="#005203"></path><path d="M563 232.4L552 208.3L531 217.1Z" fill="#002a00" stroke="#002a00"></path><path d="M531 217.1L552 208.3L500 201.6Z" fill="#000000" stroke="#000000"></path><path d="M526 72.4L441 110.7L455 144.6Z" fill="#005203" stroke="#005203"></path><path d="M557 262.3L563 232.4L531 217.1Z" fill="#004802" stroke="#004802"></path><path d="M354 398.9L415 401.4L405 371.7Z" fill="#003400" stroke="#003400"></path><path d="M405 371.7L415 401.4L449 378.6Z" fill="#003e00" stroke="#003e00"></path><path d="M531 378.7L540 368.7L491 336.9Z" fill="#003400" stroke="#003400"></path><path d="M491 336.9L540 368.7L503 307.9Z" fill="#007207" stroke="#007207"></path><path d="M618 262.9L600 222L563 232.4Z" fill="#003e00" stroke="#003e00"></path><path d="M531 378.7L491 336.9L449 378.6Z" fill="#006706" stroke="#006706"></path><path d="M523 434.7L531 378.7L449 378.6Z" fill="#000000" stroke="#000000"></path><path d="M591 338L587 289L503 307.9Z" fill="#005203" stroke="#005203"></path><path d="M429 143.6L360 143.3L409 173.1Z" fill="#004802" stroke="#004802"></path><path d="M303 183.4L342 290L400 206Z" fill="#005d04" stroke="#005d04"></path><path d="M263 292.7L312 357L342 290Z" fill="#003400" stroke="#003400"></path><path d="M342 290L312 357L356 316.9Z" fill="#001c00" stroke="#001c00"></path><path d="M359 350.1L354 398.9L405 371.7Z" fill="#004802" stroke="#004802"></path><path d="M352 397.6L354 398.9L359 350.1Z" fill="#006706" stroke="#006706"></path><path d="M315 375.9L352 397.6L359 350.1Z" fill="#002a00" stroke="#002a00"></path><path d="M455 144.6L441 110.7L429 143.6Z" fill="#006706" stroke="#006706"></path><path d="M429 143.6L412 81.4L360 143.3Z" fill="#002a00" stroke="#002a00"></path><path d="M542 125.7L455 144.6L485 172.7Z" fill="#006706" stroke="#006706"></path><path d="M303 183.4L400 206L367 169.4Z" fill="#005203" stroke="#005203"></path><path d="M354 398.9L422 429.9L415 401.4Z" fill="#003400" stroke="#003400"></path><path d="M415 401.4L422 429.9L449 378.6Z" fill="#007207" stroke="#007207"></path><path d="M563 232.4L591 206.1L552 208.3Z" fill="#003e00" stroke="#003e00"></path><path d="M552 208.3L542 125.7L500 201.6Z" fill="#004802" stroke="#004802"></path><path d="M600 222L591 206.1L563 232.4Z" fill="#000000" stroke="#000000"></path><path d="M328 148.3L303 183.4L367 169.4Z" fill="#000000" stroke="#000000"></path><path d="M567 380.9L591 338L540 368.7Z" fill="#006706" stroke="#006706"></path><path d="M540 368.7L591 338L503 307.9Z" fill="#007207" stroke="#007207"></path><path d="M618 262.9L563 232.4L557 262.3Z" fill="#005d04" stroke="#005d04"></path><path d="M339 475.7L377 479.1L354 398.9Z" fill="#000000" stroke="#000000"></path><path d="M312 357L315 375.9L359 350.1Z" fill="#005d04" stroke="#005d04"></path><path d="M297 391L315 375.9L312 357Z" fill="#002a00" stroke="#002a00"></path><path d="M285 131.3L328 148.3L274 70.6Z" fill="#003400" stroke="#003400"></path><path d="M360 143.3L328 148.3L367 169.4Z" fill="#003400" stroke="#003400"></path><path d="M609 216.4L600 222L618 262.9Z" fill="#006706" stroke="#006706"></path><path d="M303 183.4L281 223.4L342 290Z" fill="#003400" stroke="#003400"></path><path d="M523 434.7L567 380.9L531 378.7Z" fill="#001c00" stroke="#001c00"></path><path d="M531 378.7L567 380.9L540 368.7Z" fill="#001c00" stroke="#001c00"></path><path d="M328 148.3L307 159.4L303 183.4Z" fill="#004802" stroke="#004802"></path><path d="M303 183.4L275 195.4L281 223.4Z" fill="#004802" stroke="#004802"></path><path d="M591 206.1L542 125.7L552 208.3Z" fill="#002200" stroke="#002200"></path><path d="M600 222L609 216.4L591 206.1Z" fill="#002a00" stroke="#002a00"></path><path d="M591 206.1L597 124.3L542 125.7Z" fill="#004802" stroke="#004802"></path><path d="M618 262.9L557 262.3L587 289Z" fill="#001c00" stroke="#001c00"></path><path d="M622 294L618 262.9L587 289Z" fill="#001c00" stroke="#001c00"></path><path d="M399 460.4L439 448.3L422 429.9Z" fill="#004802" stroke="#004802"></path><path d="M422 429.9L439 448.3L449 378.6Z" fill="#003e00" stroke="#003e00"></path><path d="M249 290.1L263 292.7L245 285.7Z" fill="#005d04" stroke="#005d04"></path><path d="M282 249.3L263 292.7L342 290Z" fill="#004802" stroke="#004802"></path><path d="M307 159.4L275 195.4L303 183.4Z" fill="#004802" stroke="#004802"></path><path d="M245 285.7L263 292.7L282 249.3Z" fill="#002200" stroke="#002200"></path><path d="M656 278.9L622 294L666 316Z" fill="#004802" stroke="#004802"></path><path d="M591 338L622 294L587 289Z" fill="#002a00" stroke="#002a00"></path><path d="M511 447.4L523 434.7L449 378.6Z" fill="#004802" stroke="#004802"></path><path d="M315 375.9L297 391L352 397.6Z" fill="#000000" stroke="#000000"></path><path d="M354 398.9L399 460.4L422 429.9Z" fill="#006706" stroke="#006706"></path><path d="M261 386.6L297 391L312 357Z" fill="#000000" stroke="#000000"></path><path d="M412 51.6L412 81.4L442 39.6Z" fill="#004802" stroke="#004802"></path><path d="M441 110.7L412 81.4L429 143.6Z" fill="#002a00" stroke="#002a00"></path><path d="M328 148.3L285 131.3L307 159.4Z" fill="#005d04" stroke="#005d04"></path><path d="M622 294L632 259.3L618 262.9Z" fill="#002a00" stroke="#002a00"></path><path d="M618 262.9L632 259.3L609 216.4Z" fill="#000000" stroke="#000000"></path><path d="M439 448.3L511 447.4L449 378.6Z" fill="#000000" stroke="#000000"></path><path d="M245 285.7L282 249.3L220 216Z" fill="#003400" stroke="#003400"></path><path d="M263 292.7L244 308L312 357Z" fill="#002200" stroke="#002200"></path><path d="M377 479.1L399 460.4L354 398.9Z" fill="#002a00" stroke="#002a00"></path><path d="M439 448.3L446 467.6L511 447.4Z" fill="#000000" stroke="#000000"></path><path d="M220 216L282 249.3L281 223.4Z" fill="#004802" stroke="#004802"></path><path d="M249 290.1L244 308L263 292.7Z" fill="#006706" stroke="#006706"></path><path d="M399 460.4L446 467.6L439 448.3Z" fill="#006706" stroke="#006706"></path><path d="M245 285.7L244 308L249 290.1Z" fill="#000000" stroke="#000000"></path><path d="M666 221.1L621 172.7L609 216.4Z" fill="#001c00" stroke="#001c00"></path><path d="M609 216.4L621 172.7L591 206.1Z" fill="#006706" stroke="#006706"></path><path d="M358 34.6L328 148.3L360 143.3Z" fill="#005d04" stroke="#005d04"></path><path d="M307 159.4L285 131.3L275 195.4Z" fill="#002200" stroke="#002200"></path><path d="M275 195.4L232 191.6L281 223.4Z" fill="#005d04" stroke="#005d04"></path><path d="M672 177.1L624 161.6L621 172.7Z" fill="#002200" stroke="#002200"></path><path d="M621 172.7L597 124.3L591 206.1Z" fill="#004802" stroke="#004802"></path><path d="M624 161.6L597 124.3L621 172.7Z" fill="#004802" stroke="#004802"></path><path d="M542 125.7L526 72.4L455 144.6Z" fill="#000000" stroke="#000000"></path><path d="M550 47.6L526 72.4L592 71.6Z" fill="#005203" stroke="#005203"></path><path d="M666 316L622 294L591 338Z" fill="#002200" stroke="#002200"></path><path d="M622 294L656 278.9L632 259.3Z" fill="#002a00" stroke="#002a00"></path><path d="M632 259.3L666 221.1L609 216.4Z" fill="#002a00" stroke="#002a00"></path><path d="M612 407.7L591 338L567 380.9Z" fill="#006706" stroke="#006706"></path><path d="M233 338.6L261 386.6L312 357Z" fill="#000000" stroke="#000000"></path><path d="M296 442.3L354 398.9L352 397.6Z" fill="#005d04" stroke="#005d04"></path><path d="M560 480.4L586 429.7L523 434.7Z" fill="#003400" stroke="#003400"></path><path d="M523 434.7L586 429.7L567 380.9Z" fill="#002200" stroke="#002200"></path><path d="M532 475.3L523 434.7L511 447.4Z" fill="#005203" stroke="#005203"></path><path d="M244 308L233 338.6L312 357Z" fill="#002a00" stroke="#002a00"></path><path d="M207 324.1L233 338.6L244 308Z" fill="#003400" stroke="#003400"></path><path d="M296 442.3L352 397.6L297 391Z" fill="#004802" stroke="#004802"></path><path d="M399 460.4L425 506.3L446 467.6Z" fill="#001c00" stroke="#001c00"></path><path d="M442 39.6L412 81.4L441 110.7Z" fill="#003e00" stroke="#003e00"></path><path d="M412 81.4L358 34.6L360 143.3Z" fill="#006706" stroke="#006706"></path><path d="M586 429.7L612 407.7L567 380.9Z" fill="#003e00" stroke="#003e00"></path><path d="M261 130.9L232 191.6L275 195.4Z" fill="#002a00" stroke="#002a00"></path><path d="M245 285.7L207 324.1L244 308Z" fill="#005203" stroke="#005203"></path><path d="M489 511.6L511 447.4L446 467.6Z" fill="#006706" stroke="#006706"></path><path d="M489 511.6L532 475.3L511 447.4Z" fill="#005203" stroke="#005203"></path><path d="M261 386.6L296 442.3L297 391Z" fill="#007207" stroke="#007207"></path><path d="M285 131.3L261 130.9L275 195.4Z" fill="#004802" stroke="#004802"></path><path d="M274 70.6L261 130.9L285 131.3Z" fill="#000000" stroke="#000000"></path><path d="M191 175.1L220 216L232 191.6Z" fill="#006706" stroke="#006706"></path><path d="M232 191.6L220 216L281 223.4Z" fill="#005203" stroke="#005203"></path><path d="M612 407.7L666 316L591 338Z" fill="#003e00" stroke="#003e00"></path><path d="M511 44.9L442 39.6L441 110.7Z" fill="#003400" stroke="#003400"></path><path d="M717 239.1L666 221.1L656 278.9Z" fill="#002a00" stroke="#002a00"></path><path d="M656 278.9L666 221.1L632 259.3Z" fill="#002a00" stroke="#002a00"></path><path d="M296 442.3L339 475.7L354 398.9Z" fill="#007207" stroke="#007207"></path><path d="M520 45.7L511 44.9L526 72.4Z" fill="#002200" stroke="#002200"></path><path d="M526 72.4L511 44.9L441 110.7Z" fill="#004802" stroke="#004802"></path><path d="M550 47.6L520 45.7L526 72.4Z" fill="#002a00" stroke="#002a00"></path><path d="M398 510.6L399 460.4L377 479.1Z" fill="#003e00" stroke="#003e00"></path><path d="M405 512.3L425 506.3L399 460.4Z" fill="#002a00" stroke="#002a00"></path><path d="M373 508.1L357 491.6L367 530.4Z" fill="#005d04" stroke="#005d04"></path><path d="M339 475.7L357 491.6L377 479.1Z" fill="#000000" stroke="#000000"></path><path d="M190 319.9L207 324.1L245 285.7Z" fill="#001c00" stroke="#001c00"></path><path d="M192 415.6L241 430.9L261 386.6Z" fill="#001c00" stroke="#001c00"></path><path d="M261 386.6L261 449.6L296 442.3Z" fill="#005203" stroke="#005203"></path><path d="M425 506.3L465 510.3L446 467.6Z" fill="#001c00" stroke="#001c00"></path><path d="M586 429.7L671 484.7L612 407.7Z" fill="#006706" stroke="#006706"></path><path d="M532 475.3L560 480.4L523 434.7Z" fill="#003400" stroke="#003400"></path><path d="M566 487.4L560 480.4L532 475.3Z" fill="#003400" stroke="#003400"></path><path d="M373 508.1L398 510.6L377 479.1Z" fill="#001c00" stroke="#001c00"></path><path d="M425 506.3L450 557.1L465 510.3Z" fill="#002a00" stroke="#002a00"></path><path d="M398 510.6L405 512.3L399 460.4Z" fill="#002a00" stroke="#002a00"></path><path d="M672 177.1L644 128.7L624 161.6Z" fill="#005203" stroke="#005203"></path><path d="M624 161.6L644 128.7L597 124.3Z" fill="#002200" stroke="#002200"></path><path d="M592 71.6L526 72.4L542 125.7Z" fill="#003400" stroke="#003400"></path><path d="M592 71.6L542 125.7L597 124.3Z" fill="#002a00" stroke="#002a00"></path><path d="M529 0L492 16.9L511 44.9Z" fill="#003e00" stroke="#003e00"></path><path d="M511 44.9L492 16.9L442 39.6Z" fill="#002a00" stroke="#002a00"></path><path d="M541 534.3L489 511.6L499 600Z" fill="#002200" stroke="#002200"></path><path d="M465 510.3L489 511.6L446 467.6Z" fill="#000000" stroke="#000000"></path><path d="M261 130.9L219 159.4L232 191.6Z" fill="#003400" stroke="#003400"></path><path d="M220 216L191 251L245 285.7Z" fill="#005d04" stroke="#005d04"></path><path d="M398 510.6L367 530.4L405 512.3Z" fill="#006706" stroke="#006706"></path><path d="M357 491.6L373 508.1L377 479.1Z" fill="#005d04" stroke="#005d04"></path><path d="M367 530.4L357 491.6L320 515.1Z" fill="#004802" stroke="#004802"></path><path d="M666 221.1L672 177.1L621 172.7Z" fill="#003e00" stroke="#003e00"></path><path d="M717 239.1L672 177.1L666 221.1Z" fill="#003e00" stroke="#003e00"></path><path d="M630 88.7L592 71.6L597 124.3Z" fill="#004802" stroke="#004802"></path><path d="M389 -1.1L358 34.6L412 51.6Z" fill="#001c00" stroke="#001c00"></path><path d="M412 51.6L358 34.6L412 81.4Z" fill="#003400" stroke="#003400"></path><path d="M261 130.9L208 154.3L219 159.4Z" fill="#001c00" stroke="#001c00"></path><path d="M147 201.1L191 251L220 216Z" fill="#002a00" stroke="#002a00"></path><path d="M541 534.3L566 487.4L532 475.3Z" fill="#003e00" stroke="#003e00"></path><path d="M560 480.4L566 487.4L586 429.7Z" fill="#004802" stroke="#004802"></path><path d="M762 266.3L717 239.1L666 316Z" fill="#004802" stroke="#004802"></path><path d="M241 430.9L261 449.6L261 386.6Z" fill="#003e00" stroke="#003e00"></path><path d="M296 442.3L276 463.7L339 475.7Z" fill="#003e00" stroke="#003e00"></path><path d="M261 449.6L276 463.7L296 442.3Z" fill="#004802" stroke="#004802"></path><path d="M191 251L190 319.9L245 285.7Z" fill="#002a00" stroke="#002a00"></path><path d="M192 415.6L261 386.6L233 338.6Z" fill="#002200" stroke="#002200"></path><path d="M192 415.6L233 338.6L207 324.1Z" fill="#006706" stroke="#006706"></path><path d="M242 531.3L320 515.1L276 463.7Z" fill="#007207" stroke="#007207"></path><path d="M492 0L492 16.9L529 0Z" fill="#005d04" stroke="#005d04"></path><path d="M442 39.6L389 -1.1L412 51.6Z" fill="#000000" stroke="#000000"></path><path d="M358 34.6L274 70.6L328 148.3Z" fill="#003400" stroke="#003400"></path><path d="M238 92.7L208 154.3L261 130.9Z" fill="#004802" stroke="#004802"></path><path d="M219 159.4L191 175.1L232 191.6Z" fill="#004802" stroke="#004802"></path><path d="M644 128.7L630 88.7L597 124.3Z" fill="#003e00" stroke="#003e00"></path><path d="M595 0L529 0L550 47.6Z" fill="#001c00" stroke="#001c00"></path><path d="M492 0L466 0L492 16.9Z" fill="#007207" stroke="#007207"></path><path d="M648 90.9L630 88.7L644 128.7Z" fill="#007207" stroke="#007207"></path><path d="M492 16.9L462 5.7L442 39.6Z" fill="#007207" stroke="#007207"></path><path d="M166 130.6L191 175.1L208 154.3Z" fill="#003e00" stroke="#003e00"></path><path d="M208 154.3L191 175.1L219 159.4Z" fill="#007207" stroke="#007207"></path><path d="M191 251L151 290.9L190 319.9Z" fill="#007207" stroke="#007207"></path><path d="M241 86.9L238 92.7L261 130.9Z" fill="#005d04" stroke="#005d04"></path><path d="M343 0L322 26.7L358 34.6Z" fill="#003400" stroke="#003400"></path><path d="M358 34.6L322 26.7L274 70.6Z" fill="#005203" stroke="#005203"></path><path d="M274 70.6L241 86.9L261 130.9Z" fill="#002200" stroke="#002200"></path><path d="M492 16.9L466 0L462 5.7Z" fill="#005d04" stroke="#005d04"></path><path d="M462 5.7L389 -1.1L442 39.6Z" fill="#001c00" stroke="#001c00"></path><path d="M511 44.9L520 45.7L529 0Z" fill="#000000" stroke="#000000"></path><path d="M236 0L241 86.9L274 70.6Z" fill="#003e00" stroke="#003e00"></path><path d="M238 92.7L213 91.7L208 154.3Z" fill="#004802" stroke="#004802"></path><path d="M320 515.1L357 491.6L339 475.7Z" fill="#004802" stroke="#004802"></path><path d="M373 508.1L367 530.4L398 510.6Z" fill="#003e00" stroke="#003e00"></path><path d="M405 512.3L450 557.1L425 506.3Z" fill="#006706" stroke="#006706"></path><path d="M662 106.4L648 90.9L644 128.7Z" fill="#004802" stroke="#004802"></path><path d="M630 88.7L668 60.9L592 71.6Z" fill="#004802" stroke="#004802"></path><path d="M529 0L520 45.7L550 47.6Z" fill="#000000" stroke="#000000"></path><path d="M276 463.7L320 515.1L339 475.7Z" fill="#007207" stroke="#007207"></path><path d="M230 447.7L276 463.7L261 449.6Z" fill="#000000" stroke="#000000"></path><path d="M680 105.9L662 106.4L644 128.7Z" fill="#006706" stroke="#006706"></path><path d="M403 -49.1L389 -1.1L462 5.7Z" fill="#002200" stroke="#002200"></path><path d="M366 -39.1L389 -1.1L403 -49.1Z" fill="#002200" stroke="#002200"></path><path d="M192 415.6L230 447.7L241 430.9Z" fill="#000000" stroke="#000000"></path><path d="M241 430.9L230 447.7L261 449.6Z" fill="#003e00" stroke="#003e00"></path><path d="M692 390L666 316L612 407.7Z" fill="#003e00" stroke="#003e00"></path><path d="M666 316L717 239.1L656 278.9Z" fill="#002a00" stroke="#002a00"></path><path d="M672 177.1L680 105.9L644 128.7Z" fill="#004802" stroke="#004802"></path><path d="M671 484.7L692 390L612 407.7Z" fill="#004802" stroke="#004802"></path><path d="M322 26.7L284 34.7L274 70.6Z" fill="#005d04" stroke="#005d04"></path><path d="M304 0L284 34.7L322 26.7Z" fill="#004802" stroke="#004802"></path><path d="M541 534.3L583 513.6L566 487.4Z" fill="#002200" stroke="#002200"></path><path d="M566 487.4L663 494.3L586 429.7Z" fill="#004802" stroke="#004802"></path><path d="M541 534.3L532 475.3L489 511.6Z" fill="#007207" stroke="#007207"></path><path d="M595 0L550 47.6L592 71.6Z" fill="#005203" stroke="#005203"></path><path d="M403 -49.1L462 5.7L466 0Z" fill="#006706" stroke="#006706"></path><path d="M450 557.1L489 511.6L465 510.3Z" fill="#002200" stroke="#002200"></path><path d="M389 -1.1L353 0L358 34.6Z" fill="#002a00" stroke="#002a00"></path><path d="M147 201.1L156 251.4L191 251Z" fill="#003400" stroke="#003400"></path><path d="M145 388L192 415.6L207 324.1Z" fill="#007207" stroke="#007207"></path><path d="M366 -39.1L343 0L353 0Z" fill="#003400" stroke="#003400"></path><path d="M353 0L343 0L358 34.6Z" fill="#003400" stroke="#003400"></path><path d="M419 572.1L450 557.1L405 512.3Z" fill="#002a00" stroke="#002a00"></path><path d="M541 534.3L582 521.6L583 513.6Z" fill="#000000" stroke="#000000"></path><path d="M663 494.3L671 484.7L586 429.7Z" fill="#005203" stroke="#005203"></path><path d="M145 388L207 324.1L190 319.9Z" fill="#002200" stroke="#002200"></path><path d="M241 86.9L213 91.7L238 92.7Z" fill="#003e00" stroke="#003e00"></path><path d="M191 175.1L147 201.1L220 216Z" fill="#004802" stroke="#004802"></path><path d="M197 6.7L213 91.7L241 86.9Z" fill="#001c00" stroke="#001c00"></path><path d="M729 87.6L680 105.9L672 177.1Z" fill="#005d04" stroke="#005d04"></path><path d="M662 106.4L685 83.7L648 90.9Z" fill="#006706" stroke="#006706"></path><path d="M648 90.9L668 60.9L630 88.7Z" fill="#003400" stroke="#003400"></path><path d="M310 -24.1L333 0L343 0Z" fill="#004802" stroke="#004802"></path><path d="M343 0L333 0L322 26.7Z" fill="#006706" stroke="#006706"></path><path d="M156 251.4L151 290.9L191 251Z" fill="#001c00" stroke="#001c00"></path><path d="M320 515.1L345 544.3L367 530.4Z" fill="#004802" stroke="#004802"></path><path d="M367 530.4L368 552.4L405 512.3Z" fill="#002200" stroke="#002200"></path><path d="M296 600L345 544.3L320 515.1Z" fill="#006706" stroke="#006706"></path><path d="M629 545.4L589 521.3L575 600Z" fill="#005203" stroke="#005203"></path><path d="M582 521.6L589 521.3L583 513.6Z" fill="#006706" stroke="#006706"></path><path d="M345 544.3L368 552.4L367 530.4Z" fill="#005d04" stroke="#005d04"></path><path d="M718 400.6L724 365.7L692 390Z" fill="#003400" stroke="#003400"></path><path d="M692 390L724 365.7L666 316Z" fill="#003400" stroke="#003400"></path><path d="M137 417.4L195 443.4L192 415.6Z" fill="#003400" stroke="#003400"></path><path d="M192 415.6L195 443.4L230 447.7Z" fill="#007207" stroke="#007207"></path><path d="M230 447.7L242 531.3L276 463.7Z" fill="#001c00" stroke="#001c00"></path><path d="M166 130.6L147 201.1L191 175.1Z" fill="#002200" stroke="#002200"></path><path d="M156 251.4L108 243.9L151 290.9Z" fill="#003400" stroke="#003400"></path><path d="M333 0L304 0L322 26.7Z" fill="#005203" stroke="#005203"></path><path d="M284 34.7L236 0L274 70.6Z" fill="#003400" stroke="#003400"></path><path d="M310 -24.1L304 0L333 0Z" fill="#005203" stroke="#005203"></path><path d="M368 552.4L419 572.1L405 512.3Z" fill="#002200" stroke="#002200"></path><path d="M450 557.1L499 600L489 511.6Z" fill="#001c00" stroke="#001c00"></path><path d="M575 600L589 521.3L582 521.6Z" fill="#005d04" stroke="#005d04"></path><path d="M451 600L419 572.1L416 600Z" fill="#002200" stroke="#002200"></path><path d="M762 266.3L743 233.1L717 239.1Z" fill="#007207" stroke="#007207"></path><path d="M717 239.1L743 233.1L672 177.1Z" fill="#003400" stroke="#003400"></path><path d="M729 87.6L685 83.7L680 105.9Z" fill="#002a00" stroke="#002a00"></path><path d="M680 105.9L685 83.7L662 106.4Z" fill="#005203" stroke="#005203"></path><path d="M714 431.9L718 400.6L692 390Z" fill="#002200" stroke="#002200"></path><path d="M685 83.7L668 60.9L648 90.9Z" fill="#007207" stroke="#007207"></path><path d="M126 109.4L166 130.6L213 91.7Z" fill="#003e00" stroke="#003e00"></path><path d="M213 91.7L166 130.6L208 154.3Z" fill="#002a00" stroke="#002a00"></path><path d="M668 60.9L595 0L592 71.6Z" fill="#006706" stroke="#006706"></path><path d="M403 -49.1L466 0L483 -56.1Z" fill="#002200" stroke="#002200"></path><path d="M663 494.3L566 487.4L583 513.6Z" fill="#000000" stroke="#000000"></path><path d="M589 521.3L663 494.3L583 513.6Z" fill="#002a00" stroke="#002a00"></path><path d="M466 0L492 0L483 -56.1Z" fill="#002a00" stroke="#002a00"></path><path d="M389 -1.1L366 -39.1L353 0Z" fill="#003e00" stroke="#003e00"></path><path d="M671 484.7L714 431.9L692 390Z" fill="#002a00" stroke="#002a00"></path><path d="M789 392.6L762 266.3L724 365.7Z" fill="#002200" stroke="#002200"></path><path d="M151 290.9L145 388L190 319.9Z" fill="#006706" stroke="#006706"></path><path d="M139 391.7L145 388L83 333.1Z" fill="#007207" stroke="#007207"></path><path d="M483 -56.1L492 0L529 0Z" fill="#003400" stroke="#003400"></path><path d="M724 365.7L762 266.3L666 316Z" fill="#005d04" stroke="#005d04"></path><path d="M743 233.1L804 188.6L672 177.1Z" fill="#001c00" stroke="#001c00"></path><path d="M754 389.9L724 365.7L718 400.6Z" fill="#002a00" stroke="#002a00"></path><path d="M177 -2.3L39 -17.1L165 0Z" fill="#002200" stroke="#002200"></path><path d="M366 -39.1L310 -24.1L343 0Z" fill="#004802" stroke="#004802"></path><path d="M304 0L236 0L284 34.7Z" fill="#002a00" stroke="#002a00"></path><path d="M83 333.1L145 388L151 290.9Z" fill="#001c00" stroke="#001c00"></path><path d="M145 388L137 417.4L192 415.6Z" fill="#005203" stroke="#005203"></path><path d="M595 0L483 -56.1L529 0Z" fill="#002200" stroke="#002200"></path><path d="M162 493.1L189 480.3L195 443.4Z" fill="#003400" stroke="#003400"></path><path d="M195 443.4L189 480.3L230 447.7Z" fill="#002200" stroke="#002200"></path><path d="M189 480.3L242 531.3L230 447.7Z" fill="#007207" stroke="#007207"></path><path d="M296 600L416 600L368 552.4Z" fill="#002200" stroke="#002200"></path><path d="M762 266.3L769 228.3L743 233.1Z" fill="#003400" stroke="#003400"></path><path d="M416 600L419 572.1L368 552.4Z" fill="#003e00" stroke="#003e00"></path><path d="M419 572.1L451 600L450 557.1Z" fill="#003e00" stroke="#003e00"></path><path d="M589 521.3L629 545.4L663 494.3Z" fill="#005d04" stroke="#005d04"></path><path d="M296 600L368 552.4L345 544.3Z" fill="#003e00" stroke="#003e00"></path><path d="M719 476.1L730 435.3L714 431.9Z" fill="#007207" stroke="#007207"></path><path d="M714 431.9L730 435.3L718 400.6Z" fill="#004802" stroke="#004802"></path><path d="M719 476.1L714 431.9L671 484.7Z" fill="#003400" stroke="#003400"></path><path d="M575 600L582 521.6L541 534.3Z" fill="#003e00" stroke="#003e00"></path><path d="M722 506.1L719 476.1L671 484.7Z" fill="#004802" stroke="#004802"></path><path d="M93 210.3L108 243.9L147 201.1Z" fill="#003e00" stroke="#003e00"></path><path d="M147 201.1L108 243.9L156 251.4Z" fill="#004802" stroke="#004802"></path><path d="M730 435.3L754 389.9L718 400.6Z" fill="#002a00" stroke="#002a00"></path><path d="M816 242.1L804 188.6L769 228.3Z" fill="#006706" stroke="#006706"></path><path d="M451 600L499 600L450 557.1Z" fill="#003e00" stroke="#003e00"></path><path d="M100 418.3L137 417.4L139 391.7Z" fill="#006706" stroke="#006706"></path><path d="M139 391.7L137 417.4L145 388Z" fill="#001c00" stroke="#001c00"></path><path d="M310 -24.1L236 0L304 0Z" fill="#004802" stroke="#004802"></path><path d="M804 188.6L729 87.6L672 177.1Z" fill="#000000" stroke="#000000"></path><path d="M685 83.7L729 87.6L668 60.9Z" fill="#000000" stroke="#000000"></path><path d="M668 60.9L666 0L595 0Z" fill="#000000" stroke="#000000"></path><path d="M451 600L519 603.1L499 600Z" fill="#003400" stroke="#003400"></path><path d="M499 600L519 603.1L541 534.3Z" fill="#002a00" stroke="#002a00"></path><path d="M609 629.1L519 603.1L621 642.1Z" fill="#001c00" stroke="#001c00"></path><path d="M310 -24.1L227 0L236 0Z" fill="#002a00" stroke="#002a00"></path><path d="M236 0L227 0L241 86.9Z" fill="#007207" stroke="#007207"></path><path d="M70 171.6L93 210.3L147 201.1Z" fill="#000000" stroke="#000000"></path><path d="M722 506.1L671 484.7L663 494.3Z" fill="#005d04" stroke="#005d04"></path><path d="M767 413.9L771 396L754 389.9Z" fill="#005d04" stroke="#005d04"></path><path d="M519 603.1L547 600L541 534.3Z" fill="#000000" stroke="#000000"></path><path d="M661 600L652 547.4L629 545.4Z" fill="#004802" stroke="#004802"></path><path d="M629 545.4L652 547.4L663 494.3Z" fill="#005d04" stroke="#005d04"></path><path d="M678 0L666 0L668 60.9Z" fill="#003e00" stroke="#003e00"></path><path d="M595 0L721 -32.1L483 -56.1Z" fill="#002a00" stroke="#002a00"></path><path d="M126 109.4L147 201.1L166 130.6Z" fill="#005d04" stroke="#005d04"></path><path d="M59 279.9L83 333.1L151 290.9Z" fill="#000000" stroke="#000000"></path><path d="M767 413.9L754 389.9L730 435.3Z" fill="#005203" stroke="#005203"></path><path d="M754 389.9L789 392.6L724 365.7Z" fill="#002200" stroke="#002200"></path><path d="M128 25.9L126 109.4L213 91.7Z" fill="#006706" stroke="#006706"></path><path d="M767 432.6L767 413.9L730 435.3Z" fill="#004802" stroke="#004802"></path><path d="M633 615.1L575 600L609 629.1Z" fill="#001c00" stroke="#001c00"></path><path d="M547 600L575 600L541 534.3Z" fill="#002200" stroke="#002200"></path><path d="M189 480.3L212 544.4L242 531.3Z" fill="#005d04" stroke="#005d04"></path><path d="M137 417.4L162 493.1L195 443.4Z" fill="#007207" stroke="#007207"></path><path d="M162 493.1L212 544.4L189 480.3Z" fill="#002200" stroke="#002200"></path><path d="M276 594.1L296 600L320 515.1Z" fill="#001c00" stroke="#001c00"></path><path d="M177 -2.3L197 6.7L227 0Z" fill="#000000" stroke="#000000"></path><path d="M227 0L197 6.7L241 86.9Z" fill="#007207" stroke="#007207"></path><path d="M730 0L678 0L668 60.9Z" fill="#003e00" stroke="#003e00"></path><path d="M666 0L721 -32.1L595 0Z" fill="#005d04" stroke="#005d04"></path><path d="M276 594.1L320 515.1L242 531.3Z" fill="#005203" stroke="#005203"></path><path d="M609 629.1L547 600L519 603.1Z" fill="#006706" stroke="#006706"></path><path d="M680 600L680 542.3L652 547.4Z" fill="#007207" stroke="#007207"></path><path d="M652 547.4L680 542.3L663 494.3Z" fill="#007207" stroke="#007207"></path><path d="M745 480.4L767 432.6L730 435.3Z" fill="#001c00" stroke="#001c00"></path><path d="M59 279.9L151 290.9L108 243.9Z" fill="#002200" stroke="#002200"></path><path d="M137 417.4L147 499.1L162 493.1Z" fill="#005d04" stroke="#005d04"></path><path d="M745 480.4L730 435.3L719 476.1Z" fill="#007207" stroke="#007207"></path><path d="M767 413.9L789 392.6L771 396Z" fill="#003e00" stroke="#003e00"></path><path d="M249 600L276 594.1L232 591.1Z" fill="#000000" stroke="#000000"></path><path d="M680 542.3L722 506.1L663 494.3Z" fill="#002200" stroke="#002200"></path><path d="M791 452.7L789 392.6L767 413.9Z" fill="#003400" stroke="#003400"></path><path d="M771 396L789 392.6L754 389.9Z" fill="#001c00" stroke="#001c00"></path><path d="M722 506.1L745 480.4L719 476.1Z" fill="#002a00" stroke="#002a00"></path><path d="M767 432.6L791 452.7L767 413.9Z" fill="#003e00" stroke="#003e00"></path><path d="M816 242.1L769 228.3L762 266.3Z" fill="#001c00" stroke="#001c00"></path><path d="M769 228.3L804 188.6L743 233.1Z" fill="#003400" stroke="#003400"></path><path d="M729 87.6L730 0L668 60.9Z" fill="#005203" stroke="#005203"></path><path d="M83 333.1L100 418.3L139 391.7Z" fill="#000000" stroke="#000000"></path><path d="M100 418.3L147 499.1L137 417.4Z" fill="#003400" stroke="#003400"></path><path d="M162 493.1L135 522.6L212 544.4Z" fill="#000000" stroke="#000000"></path><path d="M232 591.1L276 594.1L242 531.3Z" fill="#003400" stroke="#003400"></path><path d="M877 299.9L816 242.1L762 266.3Z" fill="#006706" stroke="#006706"></path><path d="M310 -24.1L177 -2.3L227 0Z" fill="#000000" stroke="#000000"></path><path d="M197 6.7L128 25.9L213 91.7Z" fill="#001c00" stroke="#001c00"></path><path d="M177 -2.3L310 -24.1L39 -17.1Z" fill="#003e00" stroke="#003e00"></path><path d="M816 242.1L813 189.4L804 188.6Z" fill="#005203" stroke="#005203"></path><path d="M804 188.6L817 133.9L729 87.6Z" fill="#005203" stroke="#005203"></path><path d="M55 213.6L59 279.9L108 243.9Z" fill="#004802" stroke="#004802"></path><path d="M83 333.1L78 415.7L100 418.3Z" fill="#005203" stroke="#005203"></path><path d="M55 213.6L108 243.9L93 210.3Z" fill="#000000" stroke="#000000"></path><path d="M232 591.1L242 531.3L212 544.4Z" fill="#000000" stroke="#000000"></path><path d="M276 594.1L249 600L296 600Z" fill="#006706" stroke="#006706"></path><path d="M519 603.1L451 600L621 642.1Z" fill="#005203" stroke="#005203"></path><path d="M60 118.6L70 171.6L126 109.4Z" fill="#004802" stroke="#004802"></path><path d="M126 109.4L70 171.6L147 201.1Z" fill="#005203" stroke="#005203"></path><path d="M189 600L232 591.1L212 544.4Z" fill="#007207" stroke="#007207"></path><path d="M70 171.6L64 190.1L93 210.3Z" fill="#004802" stroke="#004802"></path><path d="M128 25.9L165 0L39 -17.1Z" fill="#005d04" stroke="#005d04"></path><path d="M177 -2.3L165 0L197 6.7Z" fill="#003400" stroke="#003400"></path><path d="M0 125.4L55 213.6L64 190.1Z" fill="#006706" stroke="#006706"></path><path d="M64 190.1L55 213.6L93 210.3Z" fill="#001c00" stroke="#001c00"></path><path d="M73 539.4L135 522.6L147 499.1Z" fill="#005d04" stroke="#005d04"></path><path d="M42 400.4L78 415.7L83 333.1Z" fill="#001c00" stroke="#001c00"></path><path d="M784 0L730 0L729 87.6Z" fill="#004802" stroke="#004802"></path><path d="M678 0L714 -23.1L666 0Z" fill="#004802" stroke="#004802"></path><path d="M745 480.4L791 452.7L767 432.6Z" fill="#006706" stroke="#006706"></path><path d="M877 299.9L842 238.3L816 242.1Z" fill="#006706" stroke="#006706"></path><path d="M767 495.1L791 452.7L745 480.4Z" fill="#002200" stroke="#002200"></path><path d="M767 495.1L745 480.4L722 506.1Z" fill="#003400" stroke="#003400"></path><path d="M575 600L633 615.1L629 545.4Z" fill="#005d04" stroke="#005d04"></path><path d="M804 560.4L767 495.1L722 506.1Z" fill="#000000" stroke="#000000"></path><path d="M609 629.1L575 600L547 600Z" fill="#005d04" stroke="#005d04"></path><path d="M451 600L416 600L621 642.1Z" fill="#003e00" stroke="#003e00"></path><path d="M707 600L722 506.1L680 542.3Z" fill="#000000" stroke="#000000"></path><path d="M165 0L128 25.9L197 6.7Z" fill="#005203" stroke="#005203"></path><path d="M621 642.1L416 600L296 600Z" fill="#003e00" stroke="#003e00"></path><path d="M680 600L661 600L621 642.1Z" fill="#006706" stroke="#006706"></path><path d="M633 615.1L661 600L629 545.4Z" fill="#004802" stroke="#004802"></path><path d="M73 539.4L147 499.1L100 418.3Z" fill="#005203" stroke="#005203"></path><path d="M147 499.1L135 522.6L162 493.1Z" fill="#006706" stroke="#006706"></path><path d="M879 173.4L817 133.9L813 189.4Z" fill="#003400" stroke="#003400"></path><path d="M813 189.4L817 133.9L804 188.6Z" fill="#003e00" stroke="#003e00"></path><path d="M730 0L714 -23.1L678 0Z" fill="#007207" stroke="#007207"></path><path d="M851 379.6L762 266.3L789 392.6Z" fill="#002200" stroke="#002200"></path><path d="M816 242.1L842 238.3L813 189.4Z" fill="#002200" stroke="#002200"></path><path d="M869 120.3L819 127.4L817 133.9Z" fill="#006706" stroke="#006706"></path><path d="M817 133.9L819 127.4L729 87.6Z" fill="#005d04" stroke="#005d04"></path><path d="M730 0L721 -32.1L714 -23.1Z" fill="#004802" stroke="#004802"></path><path d="M128 25.9L93 57.7L126 109.4Z" fill="#003400" stroke="#003400"></path><path d="M70 171.6L37 124.3L64 190.1Z" fill="#006706" stroke="#006706"></path><path d="M684 600L680 600L621 642.1Z" fill="#002a00" stroke="#002a00"></path><path d="M661 600L680 600L652 547.4Z" fill="#000000" stroke="#000000"></path><path d="M93 57.7L60 118.6L126 109.4Z" fill="#005d04" stroke="#005d04"></path><path d="M621 642.1L661 600L633 615.1Z" fill="#003400" stroke="#003400"></path><path d="M680 600L684 600L680 542.3Z" fill="#002200" stroke="#002200"></path><path d="M0 260.3L31 292.9L59 279.9Z" fill="#003e00" stroke="#003e00"></path><path d="M59 279.9L31 292.9L83 333.1Z" fill="#000000" stroke="#000000"></path><path d="M0 260.3L59 279.9L55 213.6Z" fill="#002a00" stroke="#002a00"></path><path d="M778 -8.3L721 -32.1L730 0Z" fill="#007207" stroke="#007207"></path><path d="M714 -23.1L721 -32.1L666 0Z" fill="#004802" stroke="#004802"></path><path d="M249 600L621 642.1L296 600Z" fill="#005203" stroke="#005203"></path><path d="M609 629.1L621 642.1L633 615.1Z" fill="#004802" stroke="#004802"></path><path d="M812 511.4L811 455.4L791 452.7Z" fill="#001c00" stroke="#001c00"></path><path d="M791 452.7L811 455.4L789 392.6Z" fill="#003e00" stroke="#003e00"></path><path d="M821 454.7L811 455.4L822 503.6Z" fill="#004802" stroke="#004802"></path><path d="M232 591.1L189 600L249 600Z" fill="#007207" stroke="#007207"></path><path d="M249 600L38 609.1L621 642.1Z" fill="#003400" stroke="#003400"></path><path d="M177 600L189 600L212 544.4Z" fill="#007207" stroke="#007207"></path><path d="M8 383.7L42 400.4L83 333.1Z" fill="#007207" stroke="#007207"></path><path d="M78 415.7L73 539.4L100 418.3Z" fill="#007207" stroke="#007207"></path><path d="M135 522.6L177 600L212 544.4Z" fill="#007207" stroke="#007207"></path><path d="M837 454.7L821 454.7L822 503.6Z" fill="#002200" stroke="#002200"></path><path d="M811 455.4L821 454.7L789 392.6Z" fill="#006706" stroke="#006706"></path><path d="M141 597.3L177 600L135 522.6Z" fill="#007207" stroke="#007207"></path><path d="M189 600L38 609.1L249 600Z" fill="#007207" stroke="#007207"></path><path d="M621 642.1L707 600L684 600Z" fill="#004802" stroke="#004802"></path><path d="M684 600L707 600L680 542.3Z" fill="#006706" stroke="#006706"></path><path d="M821 454.7L851 379.6L789 392.6Z" fill="#001c00" stroke="#001c00"></path><path d="M24 112.9L37 124.3L28 98.4Z" fill="#002a00" stroke="#002a00"></path><path d="M60 118.6L37 124.3L70 171.6Z" fill="#005203" stroke="#005203"></path><path d="M819 127.4L784 0L729 87.6Z" fill="#001c00" stroke="#001c00"></path><path d="M784 0L778 -8.3L730 0Z" fill="#007207" stroke="#007207"></path><path d="M851 379.6L877 299.9L762 266.3Z" fill="#003400" stroke="#003400"></path><path d="M842 238.3L879 173.4L813 189.4Z" fill="#006706" stroke="#006706"></path><path d="M819 127.4L900 50.9L784 0Z" fill="#002a00" stroke="#002a00"></path><path d="M812 511.4L791 452.7L767 495.1Z" fill="#000000" stroke="#000000"></path><path d="M821 454.7L837 454.7L851 379.6Z" fill="#002a00" stroke="#002a00"></path><path d="M900 339.6L900 298.1L877 299.9Z" fill="#002a00" stroke="#002a00"></path><path d="M0 125.4L0 260.3L55 213.6Z" fill="#003e00" stroke="#003e00"></path><path d="M31 292.9L0 340.1L83 333.1Z" fill="#004802" stroke="#004802"></path><path d="M0 260.3L0 307L31 292.9Z" fill="#003400" stroke="#003400"></path><path d="M93 57.7L50 61.7L60 118.6Z" fill="#001c00" stroke="#001c00"></path><path d="M37 124.3L0 125.4L64 190.1Z" fill="#005203" stroke="#005203"></path><path d="M33 0L50 61.7L93 57.7Z" fill="#002a00" stroke="#002a00"></path><path d="M33 0L93 57.7L128 25.9Z" fill="#007207" stroke="#007207"></path><path d="M804 560.4L812 511.4L767 495.1Z" fill="#003e00" stroke="#003e00"></path><path d="M73 539.4L141 597.3L135 522.6Z" fill="#002200" stroke="#002200"></path><path d="M177 600L38 609.1L189 600Z" fill="#004802" stroke="#004802"></path><path d="M28 98.4L37 124.3L60 118.6Z" fill="#003400" stroke="#003400"></path><path d="M0 307L0 340.1L31 292.9Z" fill="#002200" stroke="#002200"></path><path d="M51 533.4L73 539.4L17 477.6Z" fill="#003400" stroke="#003400"></path><path d="M50 61.7L28 98.4L60 118.6Z" fill="#005203" stroke="#005203"></path><path d="M823 520.3L822 503.6L812 511.4Z" fill="#007207" stroke="#007207"></path><path d="M812 511.4L822 503.6L811 455.4Z" fill="#007207" stroke="#007207"></path><path d="M900 298.1L889 254.4L877 299.9Z" fill="#005d04" stroke="#005d04"></path><path d="M877 299.9L889 254.4L842 238.3Z" fill="#004802" stroke="#004802"></path><path d="M0 340.1L8 383.7L83 333.1Z" fill="#002a00" stroke="#002a00"></path><path d="M900 186.6L879 173.4L842 238.3Z" fill="#005d04" stroke="#005d04"></path><path d="M879 173.4L869 120.3L817 133.9Z" fill="#001c00" stroke="#001c00"></path><path d="M621 642.1L754 600L707 600Z" fill="#006706" stroke="#006706"></path><path d="M707 600L754 600L722 506.1Z" fill="#000000" stroke="#000000"></path><path d="M17 477.6L78 415.7L42 400.4Z" fill="#005203" stroke="#005203"></path><path d="M900 481.4L900 414.3L837 454.7Z" fill="#006706" stroke="#006706"></path><path d="M900 339.6L877 299.9L851 379.6Z" fill="#000000" stroke="#000000"></path><path d="M804 560.4L823 520.3L812 511.4Z" fill="#005203" stroke="#005203"></path><path d="M900 339.6L851 379.6L900 365.7Z" fill="#005d04" stroke="#005d04"></path><path d="M889 254.4L900 236L842 238.3Z" fill="#003e00" stroke="#003e00"></path><path d="M900 298.1L900 236L889 254.4Z" fill="#007207" stroke="#007207"></path><path d="M879 173.4L900 132.3L869 120.3Z" fill="#007207" stroke="#007207"></path><path d="M8 383.7L0 412.4L42 400.4Z" fill="#005203" stroke="#005203"></path><path d="M-55 384L0 412.4L8 383.7Z" fill="#006706" stroke="#006706"></path><path d="M0 113.9L24 112.9L28 98.4Z" fill="#002200" stroke="#002200"></path><path d="M0 113.9L0 125.4L24 112.9Z" fill="#005d04" stroke="#005d04"></path><path d="M24 112.9L0 125.4L37 124.3Z" fill="#002200" stroke="#002200"></path><path d="M900 365.7L851 379.6L900 381.9Z" fill="#002a00" stroke="#002a00"></path><path d="M0 412.4L0 415.9L42 400.4Z" fill="#001c00" stroke="#001c00"></path><path d="M754 600L804 560.4L722 506.1Z" fill="#006706" stroke="#006706"></path><path d="M900 236L900 186.6L842 238.3Z" fill="#005d04" stroke="#005d04"></path><path d="M0 74.6L0 113.9L28 98.4Z" fill="#002a00" stroke="#002a00"></path><path d="M900 381.9L851 379.6L900 414.3Z" fill="#003e00" stroke="#003e00"></path><path d="M851 379.6L837 454.7L900 414.3Z" fill="#002200" stroke="#002200"></path><path d="M929 193.6L900 186.6L900 236Z" fill="#002a00" stroke="#002a00"></path><path d="M929 193.6L901 173.6L900 186.6Z" fill="#007207" stroke="#007207"></path><path d="M900 186.6L901 173.6L879 173.4Z" fill="#007207" stroke="#007207"></path><path d="M925 320L900 236L900 298.1Z" fill="#002200" stroke="#002200"></path><path d="M925 320L900 298.1L900 339.6Z" fill="#005d04" stroke="#005d04"></path><path d="M0 415.9L0 431.7L42 400.4Z" fill="#002a00" stroke="#002a00"></path><path d="M901 173.6L901 168.1L879 173.4Z" fill="#002200" stroke="#002200"></path><path d="M17 477.6L73 539.4L78 415.7Z" fill="#005d04" stroke="#005d04"></path><path d="M73 539.4L78 600L141 597.3Z" fill="#001c00" stroke="#001c00"></path><path d="M837 454.7L822 503.6L900 481.4Z" fill="#007207" stroke="#007207"></path><path d="M900 365.7L925 320L900 339.6Z" fill="#000000" stroke="#000000"></path><path d="M0 431.7L17 477.6L42 400.4Z" fill="#004802" stroke="#004802"></path><path d="M901 168.1L900 132.3L879 173.4Z" fill="#001c00" stroke="#001c00"></path><path d="M869 120.3L900 50.9L819 127.4Z" fill="#004802" stroke="#004802"></path><path d="M784 0L900 0L778 -8.3Z" fill="#007207" stroke="#007207"></path><path d="M0 431.7L0 457.6L17 477.6Z" fill="#001c00" stroke="#001c00"></path><path d="M17 477.6L0 538.3L51 533.4Z" fill="#007207" stroke="#007207"></path><path d="M900 481.4L822 503.6L823 520.3Z" fill="#001c00" stroke="#001c00"></path><path d="M900 381.9L925 320L900 365.7Z" fill="#005d04" stroke="#005d04"></path><path d="M0 36.7L0 74.6L50 61.7Z" fill="#006706" stroke="#006706"></path><path d="M50 61.7L0 74.6L28 98.4Z" fill="#002a00" stroke="#002a00"></path><path d="M900 414.3L925 320L900 381.9Z" fill="#000000" stroke="#000000"></path><path d="M901 173.6L929 193.6L901 168.1Z" fill="#004802" stroke="#004802"></path><path d="M901 168.1L942 108.7L900 132.3Z" fill="#006706" stroke="#006706"></path><path d="M0 457.6L0 478.1L17 477.6Z" fill="#000000" stroke="#000000"></path><path d="M39 -17.1L33 0L128 25.9Z" fill="#002a00" stroke="#002a00"></path><path d="M39 -17.1L310 -24.1L366 -39.1Z" fill="#001c00" stroke="#001c00"></path><path d="M35 600L78 600L73 539.4Z" fill="#003e00" stroke="#003e00"></path><path d="M141 597.3L38 609.1L177 600Z" fill="#002200" stroke="#002200"></path><path d="M35 600L73 539.4L51 533.4Z" fill="#003400" stroke="#003400"></path><path d="M0 36.7L-28 122.3L0 74.6Z" fill="#002200" stroke="#002200"></path><path d="M0 74.6L-28 122.3L0 113.9Z" fill="#007207" stroke="#007207"></path><path d="M0 113.9L-28 122.3L0 125.4Z" fill="#005203" stroke="#005203"></path><path d="M0 125.4L-28 122.3L0 260.3Z" fill="#000000" stroke="#000000"></path><path d="M0 260.3L-55 384L0 307Z" fill="#003e00" stroke="#003e00"></path><path d="M0 307L-55 384L0 340.1Z" fill="#000000" stroke="#000000"></path><path d="M0 340.1L-55 384L8 383.7Z" fill="#000000" stroke="#000000"></path><path d="M0 412.4L-40 447.3L0 415.9Z" fill="#002200" stroke="#002200"></path><path d="M0 415.9L-40 447.3L0 431.7Z" fill="#007207" stroke="#007207"></path><path d="M0 431.7L-40 447.3L0 457.6Z" fill="#006706" stroke="#006706"></path><path d="M0 457.6L-40 447.3L0 478.1Z" fill="#000000" stroke="#000000"></path><path d="M925 320L929 193.6L900 236Z" fill="#005203" stroke="#005203"></path><path d="M403 -49.1L39 -17.1L366 -39.1Z" fill="#004802" stroke="#004802"></path><path d="M33 0L0 36.7L50 61.7Z" fill="#005d04" stroke="#005d04"></path><path d="M942 108.7L900 83.4L900 132.3Z" fill="#005d04" stroke="#005d04"></path><path d="M900 132.3L900 83.4L869 120.3Z" fill="#007207" stroke="#007207"></path><path d="M754 600L814 597.1L804 560.4Z" fill="#003400" stroke="#003400"></path><path d="M865 600L900 548.1L823 520.3Z" fill="#004802" stroke="#004802"></path><path d="M621 642.1L814 597.1L754 600Z" fill="#003400" stroke="#003400"></path><path d="M5 0L0 36.7L33 0Z" fill="#006706" stroke="#006706"></path><path d="M900 548.1L900 481.4L823 520.3Z" fill="#002200" stroke="#002200"></path><path d="M900 414.3L915 539.3L925 320Z" fill="#001c00" stroke="#001c00"></path><path d="M941 83.9L900 50.9L900 83.4Z" fill="#005203" stroke="#005203"></path><path d="M900 83.4L900 50.9L869 120.3Z" fill="#005d04" stroke="#005d04"></path><path d="M-28 122.3L-55 384L0 260.3Z" fill="#001c00" stroke="#001c00"></path><path d="M0 36.7L0 0L-28 122.3Z" fill="#004802" stroke="#004802"></path><path d="M39 -17.1L5 0L33 0Z" fill="#002a00" stroke="#002a00"></path><path d="M-55 384L-40 447.3L0 412.4Z" fill="#002200" stroke="#002200"></path><path d="M0 478.1L0 538.3L17 477.6Z" fill="#002a00" stroke="#002a00"></path><path d="M-45 508.1L0 538.3L0 478.1Z" fill="#002200" stroke="#002200"></path><path d="M39 -17.1L0 0L5 0Z" fill="#006706" stroke="#006706"></path><path d="M5 0L0 0L0 36.7Z" fill="#003e00" stroke="#003e00"></path><path d="M938 0L900 23.7L900 50.9Z" fill="#004802" stroke="#004802"></path><path d="M900 50.9L900 23.7L784 0Z" fill="#002200" stroke="#002200"></path><path d="M778 -8.3L900 0L721 -32.1Z" fill="#007207" stroke="#007207"></path><path d="M0 538.3L35 600L51 533.4Z" fill="#007207" stroke="#007207"></path><path d="M78 600L38 609.1L141 597.3Z" fill="#000000" stroke="#000000"></path><path d="M929 193.6L942 108.7L901 168.1Z" fill="#003400" stroke="#003400"></path><path d="M925 320L942 108.7L929 193.6Z" fill="#003400" stroke="#003400"></path><path d="M18 600L38 609.1L35 600Z" fill="#005203" stroke="#005203"></path><path d="M35 600L38 609.1L78 600Z" fill="#002200" stroke="#002200"></path><path d="M938 0L900 0L900 23.7Z" fill="#002a00" stroke="#002a00"></path><path d="M900 23.7L900 0L784 0Z" fill="#003400" stroke="#003400"></path><path d="M942 108.7L941 83.9L900 83.4Z" fill="#007207" stroke="#007207"></path><path d="M865 600L823 520.3L804 560.4Z" fill="#006706" stroke="#006706"></path><path d="M900 481.4L915 539.3L900 414.3Z" fill="#004802" stroke="#004802"></path><path d="M0 600L18 600L0 538.3Z" fill="#000000" stroke="#000000"></path><path d="M0 538.3L18 600L35 600Z" fill="#004802" stroke="#004802"></path><path d="M814 597.1L865 600L804 560.4Z" fill="#005203" stroke="#005203"></path><path d="M621 642.1L865 600L814 597.1Z" fill="#007207" stroke="#007207"></path><path d="M-55 384L-45 508.1L-40 447.3Z" fill="#002a00" stroke="#002a00"></path><path d="M-40 447.3L-45 508.1L0 478.1Z" fill="#003e00" stroke="#003e00"></path><path d="M900 600L915 539.3L900 548.1Z" fill="#001c00" stroke="#001c00"></path><path d="M900 548.1L915 539.3L900 481.4Z" fill="#004802" stroke="#004802"></path><path d="M925 320L915 539.3L942 108.7Z" fill="#000000" stroke="#000000"></path><path d="M-45 508.1L0 600L0 538.3Z" fill="#007207" stroke="#007207"></path><path d="M18 600L0 600L38 609.1Z" fill="#002a00" stroke="#002a00"></path><path d="M942 108.7L938 0L941 83.9Z" fill="#005203" stroke="#005203"></path><path d="M941 83.9L938 0L900 50.9Z" fill="#003e00" stroke="#003e00"></path><path d="M900 0L938 0L721 -32.1Z" fill="#005203" stroke="#005203"></path><path d="M621 642.1L900 600L865 600Z" fill="#006706" stroke="#006706"></path><path d="M865 600L900 600L900 548.1Z" fill="#006706" stroke="#006706"></path></g></svg>